<mxfile host="65bd71144e">
    <diagram name="Page-1" id="rNN4AwOxWi-3c5t58apC">
        <mxGraphModel dx="2006" dy="1626" grid="1" gridSize="10" guides="1" tooltips="1" connect="1" arrows="1" fold="1" page="1" pageScale="1" pageWidth="827" pageHeight="1169" math="0" shadow="0">
            <root>
                <mxCell id="0"/>
                <mxCell id="1" parent="0"/>
                <mxCell id="bKWbJ0-E0UQl8z5ehJEL-210" value="" style="rounded=1;whiteSpace=wrap;html=1;strokeWidth=6;fillWeight=4;hachureGap=8;hachureAngle=45;fillColor=none;sketch=1;curveFitting=1;jiggle=2;strokeColor=light-dark(#000000,#D70404);fontColor=light-dark(#FFFFFF,#FFFFFF);" parent="1" vertex="1">
                    <mxGeometry x="-575" y="-100" width="270" height="380" as="geometry"/>
                </mxCell>
                <mxCell id="wx6jZ7UeDeFFOWRXVseS-285" value="" style="rounded=1;whiteSpace=wrap;html=1;strokeWidth=6;fillWeight=4;hachureGap=8;hachureAngle=45;fillColor=none;sketch=1;curveFitting=1;jiggle=2;strokeColor=light-dark(#000000,#FF9933);fontColor=light-dark(#FFFFFF,#FFFFFF);" parent="1" vertex="1">
                    <mxGeometry x="-660" y="-583.5" width="320" height="422.5" as="geometry"/>
                </mxCell>
                <mxCell id="wx6jZ7UeDeFFOWRXVseS-230" value="" style="group;fontColor=light-dark(#FFFFFF,#FFFFFF);" parent="1" vertex="1" connectable="0">
                    <mxGeometry x="-160" y="-650" width="890" height="520" as="geometry"/>
                </mxCell>
                <mxCell id="wx6jZ7UeDeFFOWRXVseS-227" value="" style="rounded=1;whiteSpace=wrap;html=1;strokeWidth=6;fillWeight=4;hachureGap=8;hachureAngle=45;fillColor=none;strokeColor=light-dark(#000000,#FF0080);movable=0;resizable=0;rotatable=0;deletable=0;editable=0;locked=1;connectable=0;" parent="wx6jZ7UeDeFFOWRXVseS-230" vertex="1">
                    <mxGeometry x="-20" y="-50" width="890" height="590" as="geometry"/>
                </mxCell>
                <mxCell id="wx6jZ7UeDeFFOWRXVseS-337" value="&lt;font style=&quot;color: light-dark(rgb(0, 0, 0), rgb(255, 255, 255));&quot;&gt;Custom matches are those created by invitind a friend (mandatory for CHAT module)&lt;/font&gt;&lt;div&gt;&lt;font style=&quot;color: light-dark(rgb(0, 0, 0), rgb(255, 255, 255));&quot;&gt;in case of a custom match, player1 is the host (inviter) and player2 is the invited that can&lt;/font&gt;&lt;/div&gt;&lt;div&gt;&lt;font style=&quot;color: light-dark(rgb(0, 0, 0), rgb(255, 255, 255));&quot;&gt;accept or refuse the invite&lt;/font&gt;&lt;/div&gt;" style="text;html=1;align=left;verticalAlign=middle;resizable=0;points=[];autosize=1;strokeColor=none;fillColor=none;imageHeight=20;fontColor=light-dark(#FFFFFF,#FFFFFF);" parent="wx6jZ7UeDeFFOWRXVseS-230" vertex="1">
                    <mxGeometry x="30" y="-40" width="490" height="60" as="geometry"/>
                </mxCell>
                <mxCell id="wx6jZ7UeDeFFOWRXVseS-344" value="rounds" style="shape=table;startSize=30;container=1;collapsible=1;childLayout=tableLayout;fixedRows=1;rowLines=0;fontStyle=1;align=center;resizeLast=1;html=1;fontColor=light-dark(#FFFFFF,#FFFFFF);" parent="wx6jZ7UeDeFFOWRXVseS-230" vertex="1">
                    <mxGeometry x="290" y="95" width="180" height="150" as="geometry"/>
                </mxCell>
                <mxCell id="bKWbJ0-E0UQl8z5ehJEL-44" value="" style="shape=tableRow;horizontal=0;startSize=0;swimlaneHead=0;swimlaneBody=0;fillColor=none;collapsible=0;dropTarget=0;points=[[0,0.5],[1,0.5]];portConstraint=eastwest;top=0;left=0;right=0;bottom=0;fontColor=light-dark(#FFFFFF,#FFFFFF);" parent="wx6jZ7UeDeFFOWRXVseS-344" vertex="1">
                    <mxGeometry y="30" width="180" height="30" as="geometry"/>
                </mxCell>
                <mxCell id="bKWbJ0-E0UQl8z5ehJEL-45" value="&lt;span style=&quot;font-weight: 700;&quot;&gt;PK&lt;/span&gt;" style="shape=partialRectangle;connectable=0;fillColor=none;top=0;left=0;bottom=0;right=0;fontStyle=0;overflow=hidden;whiteSpace=wrap;html=1;fontColor=light-dark(#FFFFFF,#FFFFFF);" parent="bKWbJ0-E0UQl8z5ehJEL-44" vertex="1">
                    <mxGeometry width="30" height="30" as="geometry">
                        <mxRectangle width="30" height="30" as="alternateBounds"/>
                    </mxGeometry>
                </mxCell>
                <mxCell id="bKWbJ0-E0UQl8z5ehJEL-46" value="&lt;span style=&quot;font-weight: 700; text-decoration-line: underline;&quot;&gt;round_id : UUID&lt;/span&gt;" style="shape=partialRectangle;connectable=0;fillColor=none;top=0;left=0;bottom=0;right=0;align=left;spacingLeft=6;fontStyle=0;overflow=hidden;whiteSpace=wrap;html=1;fontColor=light-dark(#FFFFFF,#FFFFFF);" parent="bKWbJ0-E0UQl8z5ehJEL-44" vertex="1">
                    <mxGeometry x="30" width="150" height="30" as="geometry">
                        <mxRectangle width="150" height="30" as="alternateBounds"/>
                    </mxGeometry>
                </mxCell>
                <mxCell id="bKWbJ0-E0UQl8z5ehJEL-47" value="" style="shape=tableRow;horizontal=0;startSize=0;swimlaneHead=0;swimlaneBody=0;fillColor=none;collapsible=0;dropTarget=0;points=[[0,0.5],[1,0.5]];portConstraint=eastwest;top=0;left=0;right=0;bottom=0;fontColor=light-dark(#FFFFFF,#FFFFFF);" parent="wx6jZ7UeDeFFOWRXVseS-344" vertex="1">
                    <mxGeometry y="60" width="180" height="30" as="geometry"/>
                </mxCell>
                <mxCell id="bKWbJ0-E0UQl8z5ehJEL-48" value="&lt;b&gt;FK&lt;/b&gt;" style="shape=partialRectangle;connectable=0;fillColor=none;top=0;left=0;bottom=0;right=0;fontStyle=0;overflow=hidden;whiteSpace=wrap;html=1;fontColor=light-dark(#FFFFFF,#FFFFFF);" parent="bKWbJ0-E0UQl8z5ehJEL-47" vertex="1">
                    <mxGeometry width="30" height="30" as="geometry">
                        <mxRectangle width="30" height="30" as="alternateBounds"/>
                    </mxGeometry>
                </mxCell>
                <mxCell id="bKWbJ0-E0UQl8z5ehJEL-49" value="&lt;b&gt;&lt;u&gt;tournament_id : UUID&lt;/u&gt;&lt;/b&gt;" style="shape=partialRectangle;connectable=0;fillColor=none;top=0;left=0;bottom=0;right=0;align=left;spacingLeft=6;fontStyle=0;overflow=hidden;whiteSpace=wrap;html=1;fontColor=light-dark(#FFFFFF,#FFFFFF);" parent="bKWbJ0-E0UQl8z5ehJEL-47" vertex="1">
                    <mxGeometry x="30" width="150" height="30" as="geometry">
                        <mxRectangle width="150" height="30" as="alternateBounds"/>
                    </mxGeometry>
                </mxCell>
                <mxCell id="wx6jZ7UeDeFFOWRXVseS-345" value="" style="shape=tableRow;horizontal=0;startSize=0;swimlaneHead=0;swimlaneBody=0;fillColor=none;collapsible=0;dropTarget=0;points=[[0,0.5],[1,0.5]];portConstraint=eastwest;top=0;left=0;right=0;bottom=1;fontColor=light-dark(#FFFFFF,#FFFFFF);" parent="wx6jZ7UeDeFFOWRXVseS-344" vertex="1">
                    <mxGeometry y="90" width="180" height="30" as="geometry"/>
                </mxCell>
                <mxCell id="wx6jZ7UeDeFFOWRXVseS-346" value="FK" style="shape=partialRectangle;connectable=0;fillColor=none;top=0;left=0;bottom=0;right=0;fontStyle=1;overflow=hidden;whiteSpace=wrap;html=1;fontColor=light-dark(#FFFFFF,#FFFFFF);" parent="wx6jZ7UeDeFFOWRXVseS-345" vertex="1">
                    <mxGeometry width="30" height="30" as="geometry">
                        <mxRectangle width="30" height="30" as="alternateBounds"/>
                    </mxGeometry>
                </mxCell>
                <mxCell id="wx6jZ7UeDeFFOWRXVseS-347" value="match_id : UUID" style="shape=partialRectangle;connectable=0;fillColor=none;top=0;left=0;bottom=0;right=0;align=left;spacingLeft=6;fontStyle=5;overflow=hidden;whiteSpace=wrap;html=1;fontColor=light-dark(#FFFFFF,#FFFFFF);" parent="wx6jZ7UeDeFFOWRXVseS-345" vertex="1">
                    <mxGeometry x="30" width="150" height="30" as="geometry">
                        <mxRectangle width="150" height="30" as="alternateBounds"/>
                    </mxGeometry>
                </mxCell>
                <mxCell id="wx6jZ7UeDeFFOWRXVseS-354" value="" style="shape=tableRow;horizontal=0;startSize=0;swimlaneHead=0;swimlaneBody=0;fillColor=none;collapsible=0;dropTarget=0;points=[[0,0.5],[1,0.5]];portConstraint=eastwest;top=0;left=0;right=0;bottom=0;fontColor=light-dark(#FFFFFF,#FFFFFF);" parent="wx6jZ7UeDeFFOWRXVseS-344" vertex="1">
                    <mxGeometry y="120" width="180" height="30" as="geometry"/>
                </mxCell>
                <mxCell id="wx6jZ7UeDeFFOWRXVseS-355" value="" style="shape=partialRectangle;connectable=0;fillColor=none;top=0;left=0;bottom=0;right=0;editable=1;overflow=hidden;whiteSpace=wrap;html=1;fontColor=light-dark(#FFFFFF,#FFFFFF);" parent="wx6jZ7UeDeFFOWRXVseS-354" vertex="1">
                    <mxGeometry width="30" height="30" as="geometry">
                        <mxRectangle width="30" height="30" as="alternateBounds"/>
                    </mxGeometry>
                </mxCell>
                <mxCell id="wx6jZ7UeDeFFOWRXVseS-356" value="progression_nbr : int" style="shape=partialRectangle;connectable=0;fillColor=none;top=0;left=0;bottom=0;right=0;align=left;spacingLeft=6;overflow=hidden;whiteSpace=wrap;html=1;fontColor=light-dark(#FFFFFF,#FFFFFF);" parent="wx6jZ7UeDeFFOWRXVseS-354" vertex="1">
                    <mxGeometry x="30" width="150" height="30" as="geometry">
                        <mxRectangle width="150" height="30" as="alternateBounds"/>
                    </mxGeometry>
                </mxCell>
                <mxCell id="wx6jZ7UeDeFFOWRXVseS-357" value="&lt;font style=&quot;color: light-dark(rgb(0, 0, 0), rgb(255, 255, 255));&quot;&gt;0: final&lt;/font&gt;&lt;div&gt;&lt;font style=&quot;color: light-dark(rgb(0, 0, 0), rgb(255, 255, 255));&quot;&gt;1: seminal&lt;/font&gt;&lt;/div&gt;&lt;div&gt;&lt;font style=&quot;color: light-dark(rgb(0, 0, 0), rgb(255, 255, 255));&quot;&gt;2:quarter&amp;nbsp; of final&lt;/font&gt;&lt;/div&gt;&lt;div style=&quot;&quot;&gt;&lt;font style=&quot;color: light-dark(rgb(0, 0, 0), rgb(255, 255, 255));&quot;&gt;....&lt;/font&gt;&lt;/div&gt;" style="text;html=1;align=left;verticalAlign=middle;resizable=0;points=[];autosize=1;strokeColor=none;fillColor=none;fontColor=light-dark(#FFFFFF,#FFFFFF);" parent="wx6jZ7UeDeFFOWRXVseS-230" vertex="1">
                    <mxGeometry x="290" y="25" width="110" height="70" as="geometry"/>
                </mxCell>
                <mxCell id="wx6jZ7UeDeFFOWRXVseS-229" value="" style="group;fontColor=light-dark(#FFFFFF,#FFFFFF);" parent="wx6jZ7UeDeFFOWRXVseS-230" vertex="1" connectable="0">
                    <mxGeometry x="574" y="90" width="180" height="210" as="geometry"/>
                </mxCell>
                <mxCell id="wx6jZ7UeDeFFOWRXVseS-181" value="tournaments" style="shape=table;startSize=30;container=1;collapsible=1;childLayout=tableLayout;fixedRows=1;rowLines=0;fontStyle=1;align=center;resizeLast=1;html=1;fontColor=light-dark(#FFFFFF,#FFFFFF);" parent="wx6jZ7UeDeFFOWRXVseS-229" vertex="1">
                    <mxGeometry width="180" height="210" as="geometry"/>
                </mxCell>
                <mxCell id="wx6jZ7UeDeFFOWRXVseS-182" value="" style="shape=tableRow;horizontal=0;startSize=0;swimlaneHead=0;swimlaneBody=0;fillColor=none;collapsible=0;dropTarget=0;points=[[0,0.5],[1,0.5]];portConstraint=eastwest;top=0;left=0;right=0;bottom=1;fontColor=light-dark(#FFFFFF,#FFFFFF);" parent="wx6jZ7UeDeFFOWRXVseS-181" vertex="1">
                    <mxGeometry y="30" width="180" height="30" as="geometry"/>
                </mxCell>
                <mxCell id="wx6jZ7UeDeFFOWRXVseS-183" value="PK" style="shape=partialRectangle;connectable=0;fillColor=none;top=0;left=0;bottom=0;right=0;fontStyle=1;overflow=hidden;whiteSpace=wrap;html=1;fontColor=light-dark(#FFFFFF,#FFFFFF);" parent="wx6jZ7UeDeFFOWRXVseS-182" vertex="1">
                    <mxGeometry width="30" height="30" as="geometry">
                        <mxRectangle width="30" height="30" as="alternateBounds"/>
                    </mxGeometry>
                </mxCell>
                <mxCell id="wx6jZ7UeDeFFOWRXVseS-184" value="torunament_id : UUID" style="shape=partialRectangle;connectable=0;fillColor=none;top=0;left=0;bottom=0;right=0;align=left;spacingLeft=6;fontStyle=5;overflow=hidden;whiteSpace=wrap;html=1;fontColor=light-dark(#FFFFFF,#FFFFFF);" parent="wx6jZ7UeDeFFOWRXVseS-182" vertex="1">
                    <mxGeometry x="30" width="150" height="30" as="geometry">
                        <mxRectangle width="150" height="30" as="alternateBounds"/>
                    </mxGeometry>
                </mxCell>
                <mxCell id="wx6jZ7UeDeFFOWRXVseS-185" value="" style="shape=tableRow;horizontal=0;startSize=0;swimlaneHead=0;swimlaneBody=0;fillColor=none;collapsible=0;dropTarget=0;points=[[0,0.5],[1,0.5]];portConstraint=eastwest;top=0;left=0;right=0;bottom=0;fontColor=light-dark(#FFFFFF,#FFFFFF);" parent="wx6jZ7UeDeFFOWRXVseS-181" vertex="1">
                    <mxGeometry y="60" width="180" height="30" as="geometry"/>
                </mxCell>
                <mxCell id="wx6jZ7UeDeFFOWRXVseS-186" value="" style="shape=partialRectangle;connectable=0;fillColor=none;top=0;left=0;bottom=0;right=0;editable=1;overflow=hidden;whiteSpace=wrap;html=1;fontColor=light-dark(#FFFFFF,#FFFFFF);" parent="wx6jZ7UeDeFFOWRXVseS-185" vertex="1">
                    <mxGeometry width="30" height="30" as="geometry">
                        <mxRectangle width="30" height="30" as="alternateBounds"/>
                    </mxGeometry>
                </mxCell>
                <mxCell id="wx6jZ7UeDeFFOWRXVseS-187" value="name : string" style="shape=partialRectangle;connectable=0;fillColor=none;top=0;left=0;bottom=0;right=0;align=left;spacingLeft=6;overflow=hidden;whiteSpace=wrap;html=1;fontColor=light-dark(#FFFFFF,#FFFFFF);" parent="wx6jZ7UeDeFFOWRXVseS-185" vertex="1">
                    <mxGeometry x="30" width="150" height="30" as="geometry">
                        <mxRectangle width="150" height="30" as="alternateBounds"/>
                    </mxGeometry>
                </mxCell>
                <mxCell id="wx6jZ7UeDeFFOWRXVseS-188" value="" style="shape=tableRow;horizontal=0;startSize=0;swimlaneHead=0;swimlaneBody=0;fillColor=none;collapsible=0;dropTarget=0;points=[[0,0.5],[1,0.5]];portConstraint=eastwest;top=0;left=0;right=0;bottom=0;fontColor=light-dark(#FFFFFF,#FFFFFF);" parent="wx6jZ7UeDeFFOWRXVseS-181" vertex="1">
                    <mxGeometry y="90" width="180" height="30" as="geometry"/>
                </mxCell>
                <mxCell id="wx6jZ7UeDeFFOWRXVseS-189" value="" style="shape=partialRectangle;connectable=0;fillColor=none;top=0;left=0;bottom=0;right=0;editable=1;overflow=hidden;whiteSpace=wrap;html=1;fontColor=light-dark(#FFFFFF,#FFFFFF);" parent="wx6jZ7UeDeFFOWRXVseS-188" vertex="1">
                    <mxGeometry width="30" height="30" as="geometry">
                        <mxRectangle width="30" height="30" as="alternateBounds"/>
                    </mxGeometry>
                </mxCell>
                <mxCell id="wx6jZ7UeDeFFOWRXVseS-190" value="created_by : UUID" style="shape=partialRectangle;connectable=0;fillColor=none;top=0;left=0;bottom=0;right=0;align=left;spacingLeft=6;overflow=hidden;whiteSpace=wrap;html=1;fontColor=light-dark(#FFFFFF,#FFFFFF);" parent="wx6jZ7UeDeFFOWRXVseS-188" vertex="1">
                    <mxGeometry x="30" width="150" height="30" as="geometry">
                        <mxRectangle width="150" height="30" as="alternateBounds"/>
                    </mxGeometry>
                </mxCell>
                <mxCell id="wx6jZ7UeDeFFOWRXVseS-191" value="" style="shape=tableRow;horizontal=0;startSize=0;swimlaneHead=0;swimlaneBody=0;fillColor=none;collapsible=0;dropTarget=0;points=[[0,0.5],[1,0.5]];portConstraint=eastwest;top=0;left=0;right=0;bottom=0;fontColor=light-dark(#FFFFFF,#FFFFFF);" parent="wx6jZ7UeDeFFOWRXVseS-181" vertex="1">
                    <mxGeometry y="120" width="180" height="30" as="geometry"/>
                </mxCell>
                <mxCell id="wx6jZ7UeDeFFOWRXVseS-192" value="" style="shape=partialRectangle;connectable=0;fillColor=none;top=0;left=0;bottom=0;right=0;editable=1;overflow=hidden;whiteSpace=wrap;html=1;fontColor=light-dark(#FFFFFF,#FFFFFF);" parent="wx6jZ7UeDeFFOWRXVseS-191" vertex="1">
                    <mxGeometry width="30" height="30" as="geometry">
                        <mxRectangle width="30" height="30" as="alternateBounds"/>
                    </mxGeometry>
                </mxCell>
                <mxCell id="wx6jZ7UeDeFFOWRXVseS-193" value="started_at : datime" style="shape=partialRectangle;connectable=0;fillColor=none;top=0;left=0;bottom=0;right=0;align=left;spacingLeft=6;overflow=hidden;whiteSpace=wrap;html=1;fontColor=light-dark(#FFFFFF,#FFFFFF);" parent="wx6jZ7UeDeFFOWRXVseS-191" vertex="1">
                    <mxGeometry x="30" width="150" height="30" as="geometry">
                        <mxRectangle width="150" height="30" as="alternateBounds"/>
                    </mxGeometry>
                </mxCell>
                <mxCell id="wx6jZ7UeDeFFOWRXVseS-194" value="finished_at : datetime" style="shape=partialRectangle;fillColor=none;align=left;verticalAlign=middle;strokeColor=none;spacingLeft=34;rotatable=0;points=[[0,0.5],[1,0.5]];portConstraint=eastwest;dropTarget=0;fontColor=light-dark(#FFFFFF,#FFFFFF);" parent="wx6jZ7UeDeFFOWRXVseS-229" vertex="1">
                    <mxGeometry y="150" width="90" height="30" as="geometry"/>
                </mxCell>
                <mxCell id="wx6jZ7UeDeFFOWRXVseS-195" value="" style="shape=partialRectangle;top=0;left=0;bottom=0;fillColor=none;stokeWidth=1;align=left;verticalAlign=middle;spacingLeft=4;spacingRight=4;overflow=hidden;rotatable=0;points=[];portConstraint=eastwest;part=1;fontColor=light-dark(#FFFFFF,#FFFFFF);" parent="wx6jZ7UeDeFFOWRXVseS-194" vertex="1" connectable="0">
                    <mxGeometry width="30" height="30" as="geometry"/>
                </mxCell>
                <mxCell id="wx6jZ7UeDeFFOWRXVseS-361" value="started : boolean" style="shape=partialRectangle;fillColor=none;align=left;verticalAlign=middle;strokeColor=none;spacingLeft=34;rotatable=0;points=[[0,0.5],[1,0.5]];portConstraint=eastwest;dropTarget=0;fontColor=light-dark(#FFFFFF,#FFFFFF);" parent="wx6jZ7UeDeFFOWRXVseS-230" vertex="1">
                    <mxGeometry x="574" y="270" width="90" height="30" as="geometry"/>
                </mxCell>
                <mxCell id="wx6jZ7UeDeFFOWRXVseS-362" value="" style="shape=partialRectangle;top=0;left=0;bottom=0;fillColor=none;stokeWidth=1;align=left;verticalAlign=middle;spacingLeft=4;spacingRight=4;overflow=hidden;rotatable=0;points=[];portConstraint=eastwest;part=1;fontColor=light-dark(#FFFFFF,#FFFFFF);" parent="wx6jZ7UeDeFFOWRXVseS-361" vertex="1" connectable="0">
                    <mxGeometry width="30" height="30" as="geometry"/>
                </mxCell>
                <mxCell id="wx6jZ7UeDeFFOWRXVseS-196" value="user_pong_stats" style="shape=table;startSize=30;container=1;collapsible=1;childLayout=tableLayout;fixedRows=1;rowLines=0;fontStyle=1;align=center;resizeLast=1;html=1;whiteSpace=wrap;fontColor=light-dark(#FFFFFF,#FFFFFF);" parent="wx6jZ7UeDeFFOWRXVseS-230" vertex="1">
                    <mxGeometry x="290" y="260" width="195" height="150" as="geometry"/>
                </mxCell>
                <mxCell id="wx6jZ7UeDeFFOWRXVseS-197" value="" style="shape=tableRow;horizontal=0;startSize=0;swimlaneHead=0;swimlaneBody=0;fillColor=none;collapsible=0;dropTarget=0;points=[[0,0.5],[1,0.5]];portConstraint=eastwest;top=0;left=0;right=0;bottom=0;html=1;fontColor=light-dark(#FFFFFF,#FFFFFF);" parent="wx6jZ7UeDeFFOWRXVseS-196" vertex="1">
                    <mxGeometry y="30" width="195" height="30" as="geometry"/>
                </mxCell>
                <mxCell id="wx6jZ7UeDeFFOWRXVseS-198" value="PK" style="shape=partialRectangle;connectable=0;fillColor=none;top=0;left=0;bottom=0;right=0;fontStyle=1;overflow=hidden;html=1;whiteSpace=wrap;fontColor=light-dark(#FFFFFF,#FFFFFF);" parent="wx6jZ7UeDeFFOWRXVseS-197" vertex="1">
                    <mxGeometry width="60" height="30" as="geometry">
                        <mxRectangle width="60" height="30" as="alternateBounds"/>
                    </mxGeometry>
                </mxCell>
                <mxCell id="wx6jZ7UeDeFFOWRXVseS-199" value="user_stats_id : UUID" style="shape=partialRectangle;connectable=0;fillColor=none;top=0;left=0;bottom=0;right=0;align=left;spacingLeft=6;fontStyle=5;overflow=hidden;html=1;whiteSpace=wrap;fontColor=light-dark(#FFFFFF,#FFFFFF);" parent="wx6jZ7UeDeFFOWRXVseS-197" vertex="1">
                    <mxGeometry x="60" width="135" height="30" as="geometry">
                        <mxRectangle width="135" height="30" as="alternateBounds"/>
                    </mxGeometry>
                </mxCell>
                <mxCell id="wx6jZ7UeDeFFOWRXVseS-200" value="" style="shape=tableRow;horizontal=0;startSize=0;swimlaneHead=0;swimlaneBody=0;fillColor=none;collapsible=0;dropTarget=0;points=[[0,0.5],[1,0.5]];portConstraint=eastwest;top=0;left=0;right=0;bottom=1;html=1;fontColor=light-dark(#FFFFFF,#FFFFFF);" parent="wx6jZ7UeDeFFOWRXVseS-196" vertex="1">
                    <mxGeometry y="60" width="195" height="30" as="geometry"/>
                </mxCell>
                <mxCell id="wx6jZ7UeDeFFOWRXVseS-201" value="FK" style="shape=partialRectangle;connectable=0;fillColor=none;top=0;left=0;bottom=0;right=0;fontStyle=1;overflow=hidden;html=1;whiteSpace=wrap;fontColor=light-dark(#FFFFFF,#FFFFFF);" parent="wx6jZ7UeDeFFOWRXVseS-200" vertex="1">
                    <mxGeometry width="60" height="30" as="geometry">
                        <mxRectangle width="60" height="30" as="alternateBounds"/>
                    </mxGeometry>
                </mxCell>
                <mxCell id="wx6jZ7UeDeFFOWRXVseS-202" value="user_id : UUID" style="shape=partialRectangle;connectable=0;fillColor=none;top=0;left=0;bottom=0;right=0;align=left;spacingLeft=6;fontStyle=5;overflow=hidden;html=1;whiteSpace=wrap;fontColor=light-dark(#FFFFFF,#FFFFFF);" parent="wx6jZ7UeDeFFOWRXVseS-200" vertex="1">
                    <mxGeometry x="60" width="135" height="30" as="geometry">
                        <mxRectangle width="135" height="30" as="alternateBounds"/>
                    </mxGeometry>
                </mxCell>
                <mxCell id="wx6jZ7UeDeFFOWRXVseS-203" value="" style="shape=tableRow;horizontal=0;startSize=0;swimlaneHead=0;swimlaneBody=0;fillColor=none;collapsible=0;dropTarget=0;points=[[0,0.5],[1,0.5]];portConstraint=eastwest;top=0;left=0;right=0;bottom=0;html=1;fontColor=light-dark(#FFFFFF,#FFFFFF);" parent="wx6jZ7UeDeFFOWRXVseS-196" vertex="1">
                    <mxGeometry y="90" width="195" height="30" as="geometry"/>
                </mxCell>
                <mxCell id="wx6jZ7UeDeFFOWRXVseS-204" value="" style="shape=partialRectangle;connectable=0;fillColor=none;top=0;left=0;bottom=0;right=0;editable=1;overflow=hidden;html=1;whiteSpace=wrap;fontColor=light-dark(#FFFFFF,#FFFFFF);" parent="wx6jZ7UeDeFFOWRXVseS-203" vertex="1">
                    <mxGeometry width="60" height="30" as="geometry">
                        <mxRectangle width="60" height="30" as="alternateBounds"/>
                    </mxGeometry>
                </mxCell>
                <mxCell id="wx6jZ7UeDeFFOWRXVseS-205" value="wins : int (0)" style="shape=partialRectangle;connectable=0;fillColor=none;top=0;left=0;bottom=0;right=0;align=left;spacingLeft=6;overflow=hidden;html=1;whiteSpace=wrap;fontColor=light-dark(#FFFFFF,#FFFFFF);" parent="wx6jZ7UeDeFFOWRXVseS-203" vertex="1">
                    <mxGeometry x="60" width="135" height="30" as="geometry">
                        <mxRectangle width="135" height="30" as="alternateBounds"/>
                    </mxGeometry>
                </mxCell>
                <mxCell id="wx6jZ7UeDeFFOWRXVseS-206" value="" style="shape=tableRow;horizontal=0;startSize=0;swimlaneHead=0;swimlaneBody=0;fillColor=none;collapsible=0;dropTarget=0;points=[[0,0.5],[1,0.5]];portConstraint=eastwest;top=0;left=0;right=0;bottom=0;html=1;fontColor=light-dark(#FFFFFF,#FFFFFF);" parent="wx6jZ7UeDeFFOWRXVseS-196" vertex="1">
                    <mxGeometry y="120" width="195" height="30" as="geometry"/>
                </mxCell>
                <mxCell id="wx6jZ7UeDeFFOWRXVseS-207" value="" style="shape=partialRectangle;connectable=0;fillColor=none;top=0;left=0;bottom=0;right=0;editable=1;overflow=hidden;html=1;whiteSpace=wrap;fontColor=light-dark(#FFFFFF,#FFFFFF);" parent="wx6jZ7UeDeFFOWRXVseS-206" vertex="1">
                    <mxGeometry width="60" height="30" as="geometry">
                        <mxRectangle width="60" height="30" as="alternateBounds"/>
                    </mxGeometry>
                </mxCell>
                <mxCell id="wx6jZ7UeDeFFOWRXVseS-208" value="losses : int (0)" style="shape=partialRectangle;connectable=0;fillColor=none;top=0;left=0;bottom=0;right=0;align=left;spacingLeft=6;overflow=hidden;html=1;whiteSpace=wrap;fontColor=light-dark(#FFFFFF,#FFFFFF);" parent="wx6jZ7UeDeFFOWRXVseS-206" vertex="1">
                    <mxGeometry x="60" width="135" height="30" as="geometry">
                        <mxRectangle width="135" height="30" as="alternateBounds"/>
                    </mxGeometry>
                </mxCell>
                <mxCell id="wx6jZ7UeDeFFOWRXVseS-231" value="" style="group;fontColor=light-dark(#FFFFFF,#FFFFFF);" parent="wx6jZ7UeDeFFOWRXVseS-230" vertex="1" connectable="0">
                    <mxGeometry x="20" y="240" width="90" height="60" as="geometry"/>
                </mxCell>
                <mxCell id="wx6jZ7UeDeFFOWRXVseS-149" value="started_at : datetime" style="shape=partialRectangle;fillColor=none;align=left;verticalAlign=middle;strokeColor=none;spacingLeft=34;rotatable=0;points=[[0,0.5],[1,0.5]];portConstraint=eastwest;dropTarget=0;fontColor=light-dark(#FFFFFF,#FFFFFF);" parent="wx6jZ7UeDeFFOWRXVseS-231" vertex="1">
                    <mxGeometry y="30" width="90" height="30" as="geometry"/>
                </mxCell>
                <mxCell id="wx6jZ7UeDeFFOWRXVseS-150" value="" style="shape=partialRectangle;top=0;left=0;bottom=0;fillColor=none;stokeWidth=1;align=left;verticalAlign=middle;spacingLeft=4;spacingRight=4;overflow=hidden;rotatable=0;points=[];portConstraint=eastwest;part=1;fontColor=light-dark(#FFFFFF,#FFFFFF);" parent="wx6jZ7UeDeFFOWRXVseS-149" vertex="1" connectable="0">
                    <mxGeometry width="30" height="30" as="geometry"/>
                </mxCell>
                <mxCell id="wx6jZ7UeDeFFOWRXVseS-151" value="finished_at : datetime" style="shape=partialRectangle;fillColor=none;align=left;verticalAlign=middle;strokeColor=none;spacingLeft=34;rotatable=0;points=[[0,0.5],[1,0.5]];portConstraint=eastwest;dropTarget=0;fontColor=light-dark(#FFFFFF,#FFFFFF);" parent="wx6jZ7UeDeFFOWRXVseS-231" vertex="1">
                    <mxGeometry width="90" height="30" as="geometry"/>
                </mxCell>
                <mxCell id="wx6jZ7UeDeFFOWRXVseS-152" value="" style="shape=partialRectangle;top=0;left=0;bottom=0;fillColor=none;stokeWidth=1;align=left;verticalAlign=middle;spacingLeft=4;spacingRight=4;overflow=hidden;rotatable=0;points=[];portConstraint=eastwest;part=1;fontColor=light-dark(#FFFFFF,#FFFFFF);" parent="wx6jZ7UeDeFFOWRXVseS-151" vertex="1" connectable="0">
                    <mxGeometry width="30" height="30" as="geometry"/>
                </mxCell>
                <mxCell id="bKWbJ0-E0UQl8z5ehJEL-1" value="matches" style="shape=table;startSize=30;container=1;collapsible=1;childLayout=tableLayout;fixedRows=1;rowLines=0;fontStyle=1;align=center;resizeLast=1;html=1;fontColor=light-dark(#FFFFFF,#FFFFFF);" parent="wx6jZ7UeDeFFOWRXVseS-230" vertex="1">
                    <mxGeometry x="20" y="45" width="190" height="375" as="geometry"/>
                </mxCell>
                <mxCell id="bKWbJ0-E0UQl8z5ehJEL-20" value="" style="shape=tableRow;horizontal=0;startSize=0;swimlaneHead=0;swimlaneBody=0;fillColor=none;collapsible=0;dropTarget=0;points=[[0,0.5],[1,0.5]];portConstraint=eastwest;top=0;left=0;right=0;bottom=0;fontColor=light-dark(#FFFFFF,#FFFFFF);" parent="bKWbJ0-E0UQl8z5ehJEL-1" vertex="1">
                    <mxGeometry y="30" width="190" height="30" as="geometry"/>
                </mxCell>
                <mxCell id="bKWbJ0-E0UQl8z5ehJEL-21" value="&lt;span style=&quot;font-weight: 700;&quot;&gt;&lt;font style=&quot;color: light-dark(rgb(0, 0, 0), rgb(255, 255, 255));&quot;&gt;PK&lt;/font&gt;&lt;/span&gt;" style="shape=partialRectangle;connectable=0;fillColor=none;top=0;left=0;bottom=0;right=0;fontStyle=0;overflow=hidden;whiteSpace=wrap;html=1;fontColor=light-dark(#FFFFFF,#FFFFFF);" parent="bKWbJ0-E0UQl8z5ehJEL-20" vertex="1">
                    <mxGeometry width="30" height="30" as="geometry">
                        <mxRectangle width="30" height="30" as="alternateBounds"/>
                    </mxGeometry>
                </mxCell>
                <mxCell id="bKWbJ0-E0UQl8z5ehJEL-22" value="&lt;span style=&quot;font-weight: 700; text-decoration-line: underline;&quot;&gt;&lt;font style=&quot;color: light-dark(rgb(0, 0, 0), rgb(255, 255, 255));&quot;&gt;match_id :UUID&lt;/font&gt;&lt;/span&gt;" style="shape=partialRectangle;connectable=0;fillColor=none;top=0;left=0;bottom=0;right=0;align=left;spacingLeft=6;fontStyle=0;overflow=hidden;whiteSpace=wrap;html=1;fontColor=light-dark(#FFFFFF,#FFFFFF);" parent="bKWbJ0-E0UQl8z5ehJEL-20" vertex="1">
                    <mxGeometry x="30" width="160" height="30" as="geometry">
                        <mxRectangle width="160" height="30" as="alternateBounds"/>
                    </mxGeometry>
                </mxCell>
                <mxCell id="bKWbJ0-E0UQl8z5ehJEL-23" value="" style="shape=tableRow;horizontal=0;startSize=0;swimlaneHead=0;swimlaneBody=0;fillColor=none;collapsible=0;dropTarget=0;points=[[0,0.5],[1,0.5]];portConstraint=eastwest;top=0;left=0;right=0;bottom=0;fontColor=light-dark(#FFFFFF,#FFFFFF);" parent="bKWbJ0-E0UQl8z5ehJEL-1" vertex="1">
                    <mxGeometry y="60" width="190" height="30" as="geometry"/>
                </mxCell>
                <mxCell id="bKWbJ0-E0UQl8z5ehJEL-24" value="&lt;b&gt;&lt;font style=&quot;color: light-dark(rgb(0, 0, 0), rgb(255, 255, 255));&quot;&gt;FK&lt;/font&gt;&lt;/b&gt;" style="shape=partialRectangle;connectable=0;fillColor=none;top=0;left=0;bottom=0;right=0;fontStyle=0;overflow=hidden;whiteSpace=wrap;html=1;fontColor=light-dark(#FFFFFF,#FFFFFF);" parent="bKWbJ0-E0UQl8z5ehJEL-23" vertex="1">
                    <mxGeometry width="30" height="30" as="geometry">
                        <mxRectangle width="30" height="30" as="alternateBounds"/>
                    </mxGeometry>
                </mxCell>
                <mxCell id="bKWbJ0-E0UQl8z5ehJEL-25" value="&lt;b&gt;&lt;u&gt;&lt;font style=&quot;color: light-dark(rgb(0, 0, 0), rgb(255, 255, 255));&quot;&gt;player1_id :&amp;nbsp;UUID&lt;/font&gt;&lt;/u&gt;&lt;/b&gt;" style="shape=partialRectangle;connectable=0;fillColor=none;top=0;left=0;bottom=0;right=0;align=left;spacingLeft=6;fontStyle=0;overflow=hidden;whiteSpace=wrap;html=1;fontColor=light-dark(#FFFFFF,#FFFFFF);" parent="bKWbJ0-E0UQl8z5ehJEL-23" vertex="1">
                    <mxGeometry x="30" width="160" height="30" as="geometry">
                        <mxRectangle width="160" height="30" as="alternateBounds"/>
                    </mxGeometry>
                </mxCell>
                <mxCell id="bKWbJ0-E0UQl8z5ehJEL-2" value="" style="shape=tableRow;horizontal=0;startSize=0;swimlaneHead=0;swimlaneBody=0;fillColor=none;collapsible=0;dropTarget=0;points=[[0,0.5],[1,0.5]];portConstraint=eastwest;top=0;left=0;right=0;bottom=1;fontColor=light-dark(#FFFFFF,#FFFFFF);" parent="bKWbJ0-E0UQl8z5ehJEL-1" vertex="1">
                    <mxGeometry y="90" width="190" height="20" as="geometry"/>
                </mxCell>
                <mxCell id="bKWbJ0-E0UQl8z5ehJEL-3" value="FK" style="shape=partialRectangle;connectable=0;fillColor=none;top=0;left=0;bottom=0;right=0;fontStyle=1;overflow=hidden;whiteSpace=wrap;html=1;fontColor=light-dark(#FFFFFF,#FFFFFF);" parent="bKWbJ0-E0UQl8z5ehJEL-2" vertex="1">
                    <mxGeometry width="30" height="20" as="geometry">
                        <mxRectangle width="30" height="20" as="alternateBounds"/>
                    </mxGeometry>
                </mxCell>
                <mxCell id="bKWbJ0-E0UQl8z5ehJEL-4" value="player2_id :&amp;nbsp;UUID" style="shape=partialRectangle;connectable=0;fillColor=none;top=0;left=0;bottom=0;right=0;align=left;spacingLeft=6;fontStyle=5;overflow=hidden;whiteSpace=wrap;html=1;fontColor=light-dark(#FFFFFF,#FFFFFF);" parent="bKWbJ0-E0UQl8z5ehJEL-2" vertex="1">
                    <mxGeometry x="30" width="160" height="20" as="geometry">
                        <mxRectangle width="160" height="20" as="alternateBounds"/>
                    </mxGeometry>
                </mxCell>
                <mxCell id="bKWbJ0-E0UQl8z5ehJEL-5" value="" style="shape=tableRow;horizontal=0;startSize=0;swimlaneHead=0;swimlaneBody=0;fillColor=none;collapsible=0;dropTarget=0;points=[[0,0.5],[1,0.5]];portConstraint=eastwest;top=0;left=0;right=0;bottom=0;fontColor=light-dark(#FFFFFF,#FFFFFF);" parent="bKWbJ0-E0UQl8z5ehJEL-1" vertex="1">
                    <mxGeometry y="110" width="190" height="30" as="geometry"/>
                </mxCell>
                <mxCell id="bKWbJ0-E0UQl8z5ehJEL-6" value="" style="shape=partialRectangle;connectable=0;fillColor=none;top=0;left=0;bottom=0;right=0;editable=1;overflow=hidden;whiteSpace=wrap;html=1;fontColor=light-dark(#FFFFFF,#FFFFFF);" parent="bKWbJ0-E0UQl8z5ehJEL-5" vertex="1">
                    <mxGeometry width="30" height="30" as="geometry">
                        <mxRectangle width="30" height="30" as="alternateBounds"/>
                    </mxGeometry>
                </mxCell>
                <mxCell id="bKWbJ0-E0UQl8z5ehJEL-7" value="player1_score : int" style="shape=partialRectangle;connectable=0;fillColor=none;top=0;left=0;bottom=0;right=0;align=left;spacingLeft=6;overflow=hidden;whiteSpace=wrap;html=1;fontColor=light-dark(#FFFFFF,#FFFFFF);" parent="bKWbJ0-E0UQl8z5ehJEL-5" vertex="1">
                    <mxGeometry x="30" width="160" height="30" as="geometry">
                        <mxRectangle width="160" height="30" as="alternateBounds"/>
                    </mxGeometry>
                </mxCell>
                <mxCell id="bKWbJ0-E0UQl8z5ehJEL-8" value="" style="shape=tableRow;horizontal=0;startSize=0;swimlaneHead=0;swimlaneBody=0;fillColor=none;collapsible=0;dropTarget=0;points=[[0,0.5],[1,0.5]];portConstraint=eastwest;top=0;left=0;right=0;bottom=0;fontColor=light-dark(#FFFFFF,#FFFFFF);" parent="bKWbJ0-E0UQl8z5ehJEL-1" vertex="1">
                    <mxGeometry y="140" width="190" height="30" as="geometry"/>
                </mxCell>
                <mxCell id="bKWbJ0-E0UQl8z5ehJEL-9" value="" style="shape=partialRectangle;connectable=0;fillColor=none;top=0;left=0;bottom=0;right=0;editable=1;overflow=hidden;whiteSpace=wrap;html=1;fontColor=light-dark(#FFFFFF,#FFFFFF);" parent="bKWbJ0-E0UQl8z5ehJEL-8" vertex="1">
                    <mxGeometry width="30" height="30" as="geometry">
                        <mxRectangle width="30" height="30" as="alternateBounds"/>
                    </mxGeometry>
                </mxCell>
                <mxCell id="bKWbJ0-E0UQl8z5ehJEL-10" value="player2_score : int" style="shape=partialRectangle;connectable=0;fillColor=none;top=0;left=0;bottom=0;right=0;align=left;spacingLeft=6;overflow=hidden;whiteSpace=wrap;html=1;fontColor=light-dark(#FFFFFF,#FFFFFF);" parent="bKWbJ0-E0UQl8z5ehJEL-8" vertex="1">
                    <mxGeometry x="30" width="160" height="30" as="geometry">
                        <mxRectangle width="160" height="30" as="alternateBounds"/>
                    </mxGeometry>
                </mxCell>
                <mxCell id="bKWbJ0-E0UQl8z5ehJEL-11" value="" style="shape=tableRow;horizontal=0;startSize=0;swimlaneHead=0;swimlaneBody=0;fillColor=none;collapsible=0;dropTarget=0;points=[[0,0.5],[1,0.5]];portConstraint=eastwest;top=0;left=0;right=0;bottom=0;fontColor=light-dark(#FFFFFF,#FFFFFF);" parent="bKWbJ0-E0UQl8z5ehJEL-1" vertex="1">
                    <mxGeometry y="170" width="190" height="30" as="geometry"/>
                </mxCell>
                <mxCell id="bKWbJ0-E0UQl8z5ehJEL-12" value="" style="shape=partialRectangle;connectable=0;fillColor=none;top=0;left=0;bottom=0;right=0;editable=1;overflow=hidden;whiteSpace=wrap;html=1;fontColor=light-dark(#FFFFFF,#FFFFFF);" parent="bKWbJ0-E0UQl8z5ehJEL-11" vertex="1">
                    <mxGeometry width="30" height="30" as="geometry">
                        <mxRectangle width="30" height="30" as="alternateBounds"/>
                    </mxGeometry>
                </mxCell>
                <mxCell id="bKWbJ0-E0UQl8z5ehJEL-13" value="winner : UUID" style="shape=partialRectangle;connectable=0;fillColor=none;top=0;left=0;bottom=0;right=0;align=left;spacingLeft=6;overflow=hidden;whiteSpace=wrap;html=1;fontColor=light-dark(#FFFFFF,#FFFFFF);" parent="bKWbJ0-E0UQl8z5ehJEL-11" vertex="1">
                    <mxGeometry x="30" width="160" height="30" as="geometry">
                        <mxRectangle width="160" height="30" as="alternateBounds"/>
                    </mxGeometry>
                </mxCell>
                <mxCell id="wx6jZ7UeDeFFOWRXVseS-340" value="power_ups : boolean" style="shape=partialRectangle;fillColor=none;align=left;verticalAlign=middle;strokeColor=none;spacingLeft=34;rotatable=0;points=[[0,0.5],[1,0.5]];portConstraint=eastwest;dropTarget=0;fontColor=light-dark(#FFFFFF,#FFFFFF);" parent="wx6jZ7UeDeFFOWRXVseS-230" vertex="1">
                    <mxGeometry x="20" y="300" width="90" height="30" as="geometry"/>
                </mxCell>
                <mxCell id="wx6jZ7UeDeFFOWRXVseS-341" value="" style="shape=partialRectangle;top=0;left=0;bottom=0;fillColor=none;stokeWidth=1;align=left;verticalAlign=middle;spacingLeft=4;spacingRight=4;overflow=hidden;rotatable=0;points=[];portConstraint=eastwest;part=1;fontColor=light-dark(#FFFFFF,#FFFFFF);" parent="wx6jZ7UeDeFFOWRXVseS-340" vertex="1" connectable="0">
                    <mxGeometry width="30" height="30" as="geometry"/>
                </mxCell>
                <mxCell id="wx6jZ7UeDeFFOWRXVseS-342" value="local_match : boolean" style="shape=partialRectangle;fillColor=none;align=left;verticalAlign=middle;strokeColor=none;spacingLeft=34;rotatable=0;points=[[0,0.5],[1,0.5]];portConstraint=eastwest;dropTarget=0;fontColor=light-dark(#FFFFFF,#FFFFFF);" parent="wx6jZ7UeDeFFOWRXVseS-230" vertex="1">
                    <mxGeometry x="20" y="330" width="90" height="30" as="geometry"/>
                </mxCell>
                <mxCell id="wx6jZ7UeDeFFOWRXVseS-343" value="" style="shape=partialRectangle;top=0;left=0;bottom=0;fillColor=none;stokeWidth=1;align=left;verticalAlign=middle;spacingLeft=4;spacingRight=4;overflow=hidden;rotatable=0;points=[];portConstraint=eastwest;part=1;fontColor=light-dark(#FFFFFF,#FFFFFF);" parent="wx6jZ7UeDeFFOWRXVseS-342" vertex="1" connectable="0">
                    <mxGeometry width="30" height="30" as="geometry"/>
                </mxCell>
                <mxCell id="wx6jZ7UeDeFFOWRXVseS-330" value="custom_match : boolean" style="shape=partialRectangle;fillColor=none;align=left;verticalAlign=middle;strokeColor=none;spacingLeft=34;rotatable=0;points=[[0,0.5],[1,0.5]];portConstraint=eastwest;dropTarget=0;fontColor=light-dark(#FFFFFF,#FFFFFF);" parent="wx6jZ7UeDeFFOWRXVseS-230" vertex="1">
                    <mxGeometry x="20" y="360" width="90" height="30" as="geometry"/>
                </mxCell>
                <mxCell id="wx6jZ7UeDeFFOWRXVseS-331" value="" style="shape=partialRectangle;top=0;left=0;bottom=0;fillColor=none;stokeWidth=1;align=left;verticalAlign=middle;spacingLeft=4;spacingRight=4;overflow=hidden;rotatable=0;points=[];portConstraint=eastwest;part=1;fontColor=light-dark(#FFFFFF,#FFFFFF);" parent="wx6jZ7UeDeFFOWRXVseS-330" vertex="1" connectable="0">
                    <mxGeometry width="30" height="30" as="geometry"/>
                </mxCell>
                <mxCell id="wx6jZ7UeDeFFOWRXVseS-332" value="accepted : boolean (FALSE)" style="shape=partialRectangle;fillColor=none;align=left;verticalAlign=middle;strokeColor=none;spacingLeft=34;rotatable=0;points=[[0,0.5],[1,0.5]];portConstraint=eastwest;dropTarget=0;fontColor=light-dark(#FFFFFF,#FFFFFF);" parent="wx6jZ7UeDeFFOWRXVseS-230" vertex="1">
                    <mxGeometry x="20" y="390" width="90" height="30" as="geometry"/>
                </mxCell>
                <mxCell id="wx6jZ7UeDeFFOWRXVseS-333" value="" style="shape=partialRectangle;top=0;left=0;bottom=0;fillColor=none;stokeWidth=1;align=left;verticalAlign=middle;spacingLeft=4;spacingRight=4;overflow=hidden;rotatable=0;points=[];portConstraint=eastwest;part=1;fontColor=light-dark(#FFFFFF,#FFFFFF);" parent="wx6jZ7UeDeFFOWRXVseS-332" vertex="1" connectable="0">
                    <mxGeometry width="30" height="30" as="geometry"/>
                </mxCell>
                <mxCell id="bKWbJ0-E0UQl8z5ehJEL-37" value="" style="fontSize=12;html=1;endArrow=ERzeroToMany;endFill=1;rounded=0;fontColor=light-dark(#FFFFFF,#FFFFFF);" parent="wx6jZ7UeDeFFOWRXVseS-230" edge="1">
                    <mxGeometry width="100" height="100" relative="1" as="geometry">
                        <mxPoint x="-10" y="140" as="sourcePoint"/>
                        <mxPoint x="20" y="140" as="targetPoint"/>
                    </mxGeometry>
                </mxCell>
                <mxCell id="wx6jZ7UeDeFFOWRXVseS-246" value="partecipations" style="shape=table;startSize=30;container=1;collapsible=1;childLayout=tableLayout;fixedRows=1;rowLines=0;fontStyle=1;align=center;resizeLast=1;html=1;whiteSpace=wrap;fontColor=light-dark(#FFFFFF,#FFFFFF);" parent="wx6jZ7UeDeFFOWRXVseS-230" vertex="1">
                    <mxGeometry x="520" y="340" width="180" height="180" as="geometry"/>
                </mxCell>
                <mxCell id="wx6jZ7UeDeFFOWRXVseS-247" value="" style="shape=tableRow;horizontal=0;startSize=0;swimlaneHead=0;swimlaneBody=0;fillColor=none;collapsible=0;dropTarget=0;points=[[0,0.5],[1,0.5]];portConstraint=eastwest;top=0;left=0;right=0;bottom=0;html=1;fontColor=light-dark(#FFFFFF,#FFFFFF);" parent="wx6jZ7UeDeFFOWRXVseS-246" vertex="1">
                    <mxGeometry y="30" width="180" height="30" as="geometry"/>
                </mxCell>
                <mxCell id="wx6jZ7UeDeFFOWRXVseS-248" value="PK" style="shape=partialRectangle;connectable=0;fillColor=none;top=0;left=0;bottom=0;right=0;fontStyle=1;overflow=hidden;html=1;whiteSpace=wrap;fontColor=light-dark(#FFFFFF,#FFFFFF);" parent="wx6jZ7UeDeFFOWRXVseS-247" vertex="1">
                    <mxGeometry width="40" height="30" as="geometry">
                        <mxRectangle width="40" height="30" as="alternateBounds"/>
                    </mxGeometry>
                </mxCell>
                <mxCell id="wx6jZ7UeDeFFOWRXVseS-249" value="partecipation_id UUID" style="shape=partialRectangle;connectable=0;fillColor=none;top=0;left=0;bottom=0;right=0;align=left;spacingLeft=6;fontStyle=5;overflow=hidden;html=1;whiteSpace=wrap;fontColor=light-dark(#FFFFFF,#FFFFFF);" parent="wx6jZ7UeDeFFOWRXVseS-247" vertex="1">
                    <mxGeometry x="40" width="140" height="30" as="geometry">
                        <mxRectangle width="140" height="30" as="alternateBounds"/>
                    </mxGeometry>
                </mxCell>
                <mxCell id="wx6jZ7UeDeFFOWRXVseS-262" value="" style="shape=tableRow;horizontal=0;startSize=0;swimlaneHead=0;swimlaneBody=0;fillColor=none;collapsible=0;dropTarget=0;points=[[0,0.5],[1,0.5]];portConstraint=eastwest;top=0;left=0;right=0;bottom=0;fontColor=light-dark(#FFFFFF,#FFFFFF);" parent="wx6jZ7UeDeFFOWRXVseS-246" vertex="1">
                    <mxGeometry y="60" width="180" height="30" as="geometry"/>
                </mxCell>
                <mxCell id="wx6jZ7UeDeFFOWRXVseS-263" value="&lt;span style=&quot;font-weight: 700;&quot;&gt;FK&lt;/span&gt;" style="shape=partialRectangle;connectable=0;fillColor=none;top=0;left=0;bottom=0;right=0;fontStyle=0;overflow=hidden;whiteSpace=wrap;html=1;fontColor=light-dark(#FFFFFF,#FFFFFF);" parent="wx6jZ7UeDeFFOWRXVseS-262" vertex="1">
                    <mxGeometry width="40" height="30" as="geometry">
                        <mxRectangle width="40" height="30" as="alternateBounds"/>
                    </mxGeometry>
                </mxCell>
                <mxCell id="wx6jZ7UeDeFFOWRXVseS-264" value="&lt;span style=&quot;font-weight: 700; text-decoration-line: underline;&quot;&gt;&lt;font style=&quot;&quot;&gt;torunament_id UUID&lt;/font&gt;&lt;/span&gt;" style="shape=partialRectangle;connectable=0;fillColor=none;top=0;left=0;bottom=0;right=0;align=left;spacingLeft=6;fontStyle=0;overflow=hidden;whiteSpace=wrap;html=1;fontColor=light-dark(#FFFFFF,#FFFFFF);" parent="wx6jZ7UeDeFFOWRXVseS-262" vertex="1">
                    <mxGeometry x="40" width="140" height="30" as="geometry">
                        <mxRectangle width="140" height="30" as="alternateBounds"/>
                    </mxGeometry>
                </mxCell>
                <mxCell id="wx6jZ7UeDeFFOWRXVseS-250" value="" style="shape=tableRow;horizontal=0;startSize=0;swimlaneHead=0;swimlaneBody=0;fillColor=none;collapsible=0;dropTarget=0;points=[[0,0.5],[1,0.5]];portConstraint=eastwest;top=0;left=0;right=0;bottom=1;html=1;fontColor=light-dark(#FFFFFF,#FFFFFF);" parent="wx6jZ7UeDeFFOWRXVseS-246" vertex="1">
                    <mxGeometry y="90" width="180" height="30" as="geometry"/>
                </mxCell>
                <mxCell id="wx6jZ7UeDeFFOWRXVseS-251" value="FK" style="shape=partialRectangle;connectable=0;fillColor=none;top=0;left=0;bottom=0;right=0;fontStyle=1;overflow=hidden;html=1;whiteSpace=wrap;fontColor=light-dark(#FFFFFF,#FFFFFF);" parent="wx6jZ7UeDeFFOWRXVseS-250" vertex="1">
                    <mxGeometry width="40" height="30" as="geometry">
                        <mxRectangle width="40" height="30" as="alternateBounds"/>
                    </mxGeometry>
                </mxCell>
                <mxCell id="wx6jZ7UeDeFFOWRXVseS-252" value="user_id : UUID" style="shape=partialRectangle;connectable=0;fillColor=none;top=0;left=0;bottom=0;right=0;align=left;spacingLeft=6;fontStyle=5;overflow=hidden;html=1;whiteSpace=wrap;fontColor=light-dark(#FFFFFF,#FFFFFF);" parent="wx6jZ7UeDeFFOWRXVseS-250" vertex="1">
                    <mxGeometry x="40" width="140" height="30" as="geometry">
                        <mxRectangle width="140" height="30" as="alternateBounds"/>
                    </mxGeometry>
                </mxCell>
                <mxCell id="wx6jZ7UeDeFFOWRXVseS-253" value="" style="shape=tableRow;horizontal=0;startSize=0;swimlaneHead=0;swimlaneBody=0;fillColor=none;collapsible=0;dropTarget=0;points=[[0,0.5],[1,0.5]];portConstraint=eastwest;top=0;left=0;right=0;bottom=0;html=1;fontColor=light-dark(#FFFFFF,#FFFFFF);" parent="wx6jZ7UeDeFFOWRXVseS-246" vertex="1">
                    <mxGeometry y="120" width="180" height="30" as="geometry"/>
                </mxCell>
                <mxCell id="wx6jZ7UeDeFFOWRXVseS-254" value="" style="shape=partialRectangle;connectable=0;fillColor=none;top=0;left=0;bottom=0;right=0;editable=1;overflow=hidden;html=1;whiteSpace=wrap;fontColor=light-dark(#FFFFFF,#FFFFFF);" parent="wx6jZ7UeDeFFOWRXVseS-253" vertex="1">
                    <mxGeometry width="40" height="30" as="geometry">
                        <mxRectangle width="40" height="30" as="alternateBounds"/>
                    </mxGeometry>
                </mxCell>
                <mxCell id="wx6jZ7UeDeFFOWRXVseS-255" value="registered_at : datetime" style="shape=partialRectangle;connectable=0;fillColor=none;top=0;left=0;bottom=0;right=0;align=left;spacingLeft=6;overflow=hidden;html=1;whiteSpace=wrap;fontColor=light-dark(#FFFFFF,#FFFFFF);" parent="wx6jZ7UeDeFFOWRXVseS-253" vertex="1">
                    <mxGeometry x="40" width="140" height="30" as="geometry">
                        <mxRectangle width="140" height="30" as="alternateBounds"/>
                    </mxGeometry>
                </mxCell>
                <mxCell id="wx6jZ7UeDeFFOWRXVseS-366" value="final_position : int" style="shape=partialRectangle;fillColor=none;align=left;verticalAlign=middle;strokeColor=none;spacingLeft=34;rotatable=0;points=[[0,0.5],[1,0.5]];portConstraint=eastwest;dropTarget=0;fontColor=light-dark(#FFFFFF,#FFFFFF);" parent="wx6jZ7UeDeFFOWRXVseS-230" vertex="1">
                    <mxGeometry x="530" y="490" width="90" height="30" as="geometry"/>
                </mxCell>
                <mxCell id="wx6jZ7UeDeFFOWRXVseS-367" value="" style="shape=partialRectangle;top=0;left=0;bottom=0;fillColor=none;stokeWidth=1;align=left;verticalAlign=middle;spacingLeft=4;spacingRight=4;overflow=hidden;rotatable=0;points=[];portConstraint=eastwest;part=1;fontColor=light-dark(#FFFFFF,#FFFFFF);" parent="wx6jZ7UeDeFFOWRXVseS-366" vertex="1" connectable="0">
                    <mxGeometry width="30" height="30" as="geometry"/>
                </mxCell>
                <mxCell id="bKWbJ0-E0UQl8z5ehJEL-50" value="" style="edgeStyle=orthogonalEdgeStyle;fontSize=12;html=1;endArrow=ERzeroToMany;endFill=1;rounded=0;entryX=0;entryY=0.5;entryDx=0;entryDy=0;fontColor=light-dark(#FFFFFF,#FFFFFF);" parent="wx6jZ7UeDeFFOWRXVseS-230" target="wx6jZ7UeDeFFOWRXVseS-250" edge="1">
                    <mxGeometry width="100" height="100" relative="1" as="geometry">
                        <mxPoint x="40" y="460" as="sourcePoint"/>
                        <mxPoint x="410" y="450" as="targetPoint"/>
                        <Array as="points">
                            <mxPoint x="40" y="450"/>
                            <mxPoint x="500" y="450"/>
                            <mxPoint x="500" y="445"/>
                        </Array>
                    </mxGeometry>
                </mxCell>
                <mxCell id="bKWbJ0-E0UQl8z5ehJEL-51" value="" style="edgeStyle=orthogonalEdgeStyle;fontSize=12;html=1;endArrow=ERoneToMany;rounded=0;exitX=1;exitY=0.5;exitDx=0;exitDy=0;entryX=1;entryY=0.5;entryDx=0;entryDy=0;fontColor=light-dark(#FFFFFF,#FFFFFF);" parent="wx6jZ7UeDeFFOWRXVseS-230" source="wx6jZ7UeDeFFOWRXVseS-182" target="wx6jZ7UeDeFFOWRXVseS-262" edge="1">
                    <mxGeometry width="100" height="100" relative="1" as="geometry">
                        <mxPoint x="810" y="400" as="sourcePoint"/>
                        <mxPoint x="910" y="300" as="targetPoint"/>
                    </mxGeometry>
                </mxCell>
                <mxCell id="bKWbJ0-E0UQl8z5ehJEL-52" value="" style="edgeStyle=entityRelationEdgeStyle;fontSize=12;html=1;endArrow=ERoneToMany;rounded=0;entryX=1;entryY=0.5;entryDx=0;entryDy=0;exitX=0;exitY=0.5;exitDx=0;exitDy=0;fontColor=light-dark(#FFFFFF,#FFFFFF);" parent="wx6jZ7UeDeFFOWRXVseS-230" source="wx6jZ7UeDeFFOWRXVseS-182" target="bKWbJ0-E0UQl8z5ehJEL-47" edge="1">
                    <mxGeometry width="100" height="100" relative="1" as="geometry">
                        <mxPoint x="520" y="220" as="sourcePoint"/>
                        <mxPoint x="620" y="120" as="targetPoint"/>
                    </mxGeometry>
                </mxCell>
                <mxCell id="bKWbJ0-E0UQl8z5ehJEL-55" value="" style="edgeStyle=entityRelationEdgeStyle;fontSize=12;html=1;endArrow=ERmandOne;rounded=0;entryX=0;entryY=0.5;entryDx=0;entryDy=0;exitX=1;exitY=0.5;exitDx=0;exitDy=0;fontColor=light-dark(#FFFFFF,#FFFFFF);" parent="wx6jZ7UeDeFFOWRXVseS-230" source="bKWbJ0-E0UQl8z5ehJEL-20" target="wx6jZ7UeDeFFOWRXVseS-345" edge="1">
                    <mxGeometry width="100" height="100" relative="1" as="geometry">
                        <mxPoint x="410" y="240" as="sourcePoint"/>
                        <mxPoint x="510" y="140" as="targetPoint"/>
                    </mxGeometry>
                </mxCell>
                <mxCell id="31" value="" style="edgeStyle=orthogonalEdgeStyle;fontSize=12;html=1;endArrow=ERone;endFill=1;entryX=0;entryY=0.5;entryDx=0;entryDy=0;fontColor=light-dark(#FFFFFF,#FFFFFF);" edge="1" parent="wx6jZ7UeDeFFOWRXVseS-230" target="wx6jZ7UeDeFFOWRXVseS-200">
                    <mxGeometry width="100" height="100" relative="1" as="geometry">
                        <mxPoint x="200" y="450" as="sourcePoint"/>
                        <mxPoint x="300" y="420" as="targetPoint"/>
                        <Array as="points">
                            <mxPoint x="200" y="450"/>
                            <mxPoint x="260" y="450"/>
                            <mxPoint x="260" y="335"/>
                        </Array>
                    </mxGeometry>
                </mxCell>
                <mxCell id="wx6jZ7UeDeFFOWRXVseS-179" value="" style="rounded=1;whiteSpace=wrap;html=1;strokeWidth=6;fillWeight=4;hachureGap=8;hachureAngle=45;fillColor=none;sketch=1;curveFitting=1;jiggle=2;strokeColor=light-dark(#000000,#00FF80);fontStyle=4;fontColor=light-dark(#FFFFFF,#FFFFFF);" parent="1" vertex="1">
                    <mxGeometry x="-817" y="320" width="710" height="500" as="geometry"/>
                </mxCell>
                <mxCell id="wx6jZ7UeDeFFOWRXVseS-104" value="" style="rounded=1;whiteSpace=wrap;html=1;strokeWidth=6;fillWeight=4;hachureGap=8;hachureAngle=45;fillColor=none;sketch=1;curveFitting=1;jiggle=2;strokeColor=light-dark(#000000,#3399FF);fontColor=light-dark(#FFFFFF,#FFFFFF);" parent="1" vertex="1">
                    <mxGeometry x="-80" y="-20" width="640" height="440" as="geometry"/>
                </mxCell>
                <mxCell id="wx6jZ7UeDeFFOWRXVseS-1" value="users" style="shape=table;startSize=30;container=1;collapsible=1;childLayout=tableLayout;fixedRows=1;rowLines=0;fontStyle=1;align=center;resizeLast=1;html=1;strokeColor=default;fontColor=light-dark(#FFFFFF,#FFFFFF);" parent="1" vertex="1">
                    <mxGeometry x="40" y="40" width="180" height="180" as="geometry"/>
                </mxCell>
                <mxCell id="wx6jZ7UeDeFFOWRXVseS-2" value="" style="shape=tableRow;horizontal=0;startSize=0;swimlaneHead=0;swimlaneBody=0;fillColor=none;collapsible=0;dropTarget=0;points=[[0,0.5],[1,0.5]];portConstraint=eastwest;top=0;left=0;right=0;bottom=1;fontColor=light-dark(#FFFFFF,#FFFFFF);" parent="wx6jZ7UeDeFFOWRXVseS-1" vertex="1">
                    <mxGeometry y="30" width="180" height="30" as="geometry"/>
                </mxCell>
                <mxCell id="wx6jZ7UeDeFFOWRXVseS-3" value="PK" style="shape=partialRectangle;connectable=0;fillColor=none;top=0;left=0;bottom=0;right=0;fontStyle=1;overflow=hidden;whiteSpace=wrap;html=1;fontColor=light-dark(#FFFFFF,#FFFFFF);" parent="wx6jZ7UeDeFFOWRXVseS-2" vertex="1">
                    <mxGeometry width="30" height="30" as="geometry">
                        <mxRectangle width="30" height="30" as="alternateBounds"/>
                    </mxGeometry>
                </mxCell>
                <mxCell id="wx6jZ7UeDeFFOWRXVseS-4" value="user_id : UUID" style="shape=partialRectangle;connectable=0;fillColor=none;top=0;left=0;bottom=0;right=0;align=left;spacingLeft=6;fontStyle=5;overflow=hidden;whiteSpace=wrap;html=1;fontColor=light-dark(#FFFFFF,#FFFFFF);" parent="wx6jZ7UeDeFFOWRXVseS-2" vertex="1">
                    <mxGeometry x="30" width="150" height="30" as="geometry">
                        <mxRectangle width="150" height="30" as="alternateBounds"/>
                    </mxGeometry>
                </mxCell>
                <mxCell id="wx6jZ7UeDeFFOWRXVseS-5" value="" style="shape=tableRow;horizontal=0;startSize=0;swimlaneHead=0;swimlaneBody=0;fillColor=none;collapsible=0;dropTarget=0;points=[[0,0.5],[1,0.5]];portConstraint=eastwest;top=0;left=0;right=0;bottom=0;fontColor=light-dark(#FFFFFF,#FFFFFF);" parent="wx6jZ7UeDeFFOWRXVseS-1" vertex="1">
                    <mxGeometry y="60" width="180" height="30" as="geometry"/>
                </mxCell>
                <mxCell id="wx6jZ7UeDeFFOWRXVseS-6" value="" style="shape=partialRectangle;connectable=0;fillColor=none;top=0;left=0;bottom=0;right=0;editable=1;overflow=hidden;whiteSpace=wrap;html=1;fontColor=light-dark(#FFFFFF,#FFFFFF);" parent="wx6jZ7UeDeFFOWRXVseS-5" vertex="1">
                    <mxGeometry width="30" height="30" as="geometry">
                        <mxRectangle width="30" height="30" as="alternateBounds"/>
                    </mxGeometry>
                </mxCell>
                <mxCell id="wx6jZ7UeDeFFOWRXVseS-7" value="email : string" style="shape=partialRectangle;connectable=0;fillColor=none;top=0;left=0;bottom=0;right=0;align=left;spacingLeft=6;overflow=hidden;whiteSpace=wrap;html=1;fontColor=light-dark(#FFFFFF,#FFFFFF);" parent="wx6jZ7UeDeFFOWRXVseS-5" vertex="1">
                    <mxGeometry x="30" width="150" height="30" as="geometry">
                        <mxRectangle width="150" height="30" as="alternateBounds"/>
                    </mxGeometry>
                </mxCell>
                <mxCell id="wx6jZ7UeDeFFOWRXVseS-8" value="" style="shape=tableRow;horizontal=0;startSize=0;swimlaneHead=0;swimlaneBody=0;fillColor=none;collapsible=0;dropTarget=0;points=[[0,0.5],[1,0.5]];portConstraint=eastwest;top=0;left=0;right=0;bottom=0;fontColor=light-dark(#FFFFFF,#FFFFFF);" parent="wx6jZ7UeDeFFOWRXVseS-1" vertex="1">
                    <mxGeometry y="90" width="180" height="30" as="geometry"/>
                </mxCell>
                <mxCell id="wx6jZ7UeDeFFOWRXVseS-9" value="" style="shape=partialRectangle;connectable=0;fillColor=none;top=0;left=0;bottom=0;right=0;editable=1;overflow=hidden;whiteSpace=wrap;html=1;fontColor=light-dark(#FFFFFF,#FFFFFF);" parent="wx6jZ7UeDeFFOWRXVseS-8" vertex="1">
                    <mxGeometry width="30" height="30" as="geometry">
                        <mxRectangle width="30" height="30" as="alternateBounds"/>
                    </mxGeometry>
                </mxCell>
                <mxCell id="wx6jZ7UeDeFFOWRXVseS-10" value="psw (hash) : string" style="shape=partialRectangle;connectable=0;fillColor=none;top=0;left=0;bottom=0;right=0;align=left;spacingLeft=6;overflow=hidden;whiteSpace=wrap;html=1;fontColor=light-dark(#FFFFFF,#FFFFFF);" parent="wx6jZ7UeDeFFOWRXVseS-8" vertex="1">
                    <mxGeometry x="30" width="150" height="30" as="geometry">
                        <mxRectangle width="150" height="30" as="alternateBounds"/>
                    </mxGeometry>
                </mxCell>
                <mxCell id="wx6jZ7UeDeFFOWRXVseS-14" value="user_profiles" style="shape=table;startSize=30;container=1;collapsible=1;childLayout=tableLayout;fixedRows=1;rowLines=0;fontStyle=1;align=center;resizeLast=1;html=1;whiteSpace=wrap;fontColor=light-dark(#FFFFFF,#FFFFFF);" parent="1" vertex="1">
                    <mxGeometry x="-402" y="420" width="235" height="240" as="geometry"/>
                </mxCell>
                <mxCell id="wx6jZ7UeDeFFOWRXVseS-15" value="" style="shape=tableRow;horizontal=0;startSize=0;swimlaneHead=0;swimlaneBody=0;fillColor=none;collapsible=0;dropTarget=0;points=[[0,0.5],[1,0.5]];portConstraint=eastwest;top=0;left=0;right=0;bottom=0;html=1;fontColor=light-dark(#FFFFFF,#FFFFFF);" parent="wx6jZ7UeDeFFOWRXVseS-14" vertex="1">
                    <mxGeometry y="30" width="235" height="30" as="geometry"/>
                </mxCell>
                <mxCell id="wx6jZ7UeDeFFOWRXVseS-16" value="PK" style="shape=partialRectangle;connectable=0;fillColor=none;top=0;left=0;bottom=0;right=0;fontStyle=1;overflow=hidden;html=1;whiteSpace=wrap;fontColor=light-dark(#FFFFFF,#FFFFFF);" parent="wx6jZ7UeDeFFOWRXVseS-15" vertex="1">
                    <mxGeometry width="45" height="30" as="geometry">
                        <mxRectangle width="45" height="30" as="alternateBounds"/>
                    </mxGeometry>
                </mxCell>
                <mxCell id="wx6jZ7UeDeFFOWRXVseS-17" value="user_preferences_id : UUID" style="shape=partialRectangle;connectable=0;fillColor=none;top=0;left=0;bottom=0;right=0;align=left;spacingLeft=6;fontStyle=5;overflow=hidden;html=1;whiteSpace=wrap;fontColor=light-dark(#FFFFFF,#FFFFFF);" parent="wx6jZ7UeDeFFOWRXVseS-15" vertex="1">
                    <mxGeometry x="45" width="190" height="30" as="geometry">
                        <mxRectangle width="190" height="30" as="alternateBounds"/>
                    </mxGeometry>
                </mxCell>
                <mxCell id="wx6jZ7UeDeFFOWRXVseS-18" value="" style="shape=tableRow;horizontal=0;startSize=0;swimlaneHead=0;swimlaneBody=0;fillColor=none;collapsible=0;dropTarget=0;points=[[0,0.5],[1,0.5]];portConstraint=eastwest;top=0;left=0;right=0;bottom=1;html=1;fontColor=light-dark(#FFFFFF,#FFFFFF);" parent="wx6jZ7UeDeFFOWRXVseS-14" vertex="1">
                    <mxGeometry y="60" width="235" height="30" as="geometry"/>
                </mxCell>
                <mxCell id="wx6jZ7UeDeFFOWRXVseS-19" value="FK" style="shape=partialRectangle;connectable=0;fillColor=none;top=0;left=0;bottom=0;right=0;fontStyle=1;overflow=hidden;html=1;whiteSpace=wrap;fontColor=light-dark(#FFFFFF,#FFFFFF);" parent="wx6jZ7UeDeFFOWRXVseS-18" vertex="1">
                    <mxGeometry width="45" height="30" as="geometry">
                        <mxRectangle width="45" height="30" as="alternateBounds"/>
                    </mxGeometry>
                </mxCell>
                <mxCell id="wx6jZ7UeDeFFOWRXVseS-20" value="user_id : UUID" style="shape=partialRectangle;connectable=0;fillColor=none;top=0;left=0;bottom=0;right=0;align=left;spacingLeft=6;fontStyle=5;overflow=hidden;html=1;whiteSpace=wrap;fontColor=light-dark(#FFFFFF,#FFFFFF);" parent="wx6jZ7UeDeFFOWRXVseS-18" vertex="1">
                    <mxGeometry x="45" width="190" height="30" as="geometry">
                        <mxRectangle width="190" height="30" as="alternateBounds"/>
                    </mxGeometry>
                </mxCell>
                <mxCell id="wx6jZ7UeDeFFOWRXVseS-21" value="" style="shape=tableRow;horizontal=0;startSize=0;swimlaneHead=0;swimlaneBody=0;fillColor=none;collapsible=0;dropTarget=0;points=[[0,0.5],[1,0.5]];portConstraint=eastwest;top=0;left=0;right=0;bottom=0;html=1;fontColor=light-dark(#FFFFFF,#FFFFFF);" parent="wx6jZ7UeDeFFOWRXVseS-14" vertex="1">
                    <mxGeometry y="90" width="235" height="30" as="geometry"/>
                </mxCell>
                <mxCell id="wx6jZ7UeDeFFOWRXVseS-22" value="" style="shape=partialRectangle;connectable=0;fillColor=none;top=0;left=0;bottom=0;right=0;editable=1;overflow=hidden;html=1;whiteSpace=wrap;fontColor=light-dark(#FFFFFF,#FFFFFF);" parent="wx6jZ7UeDeFFOWRXVseS-21" vertex="1">
                    <mxGeometry width="45" height="30" as="geometry">
                        <mxRectangle width="45" height="30" as="alternateBounds"/>
                    </mxGeometry>
                </mxCell>
                <mxCell id="wx6jZ7UeDeFFOWRXVseS-23" value="username : string" style="shape=partialRectangle;connectable=0;fillColor=none;top=0;left=0;bottom=0;right=0;align=left;spacingLeft=6;overflow=hidden;html=1;whiteSpace=wrap;fontColor=light-dark(#FFFFFF,#FFFFFF);" parent="wx6jZ7UeDeFFOWRXVseS-21" vertex="1">
                    <mxGeometry x="45" width="190" height="30" as="geometry">
                        <mxRectangle width="190" height="30" as="alternateBounds"/>
                    </mxGeometry>
                </mxCell>
                <mxCell id="wx6jZ7UeDeFFOWRXVseS-24" value="" style="shape=tableRow;horizontal=0;startSize=0;swimlaneHead=0;swimlaneBody=0;fillColor=none;collapsible=0;dropTarget=0;points=[[0,0.5],[1,0.5]];portConstraint=eastwest;top=0;left=0;right=0;bottom=0;html=1;fontColor=light-dark(#FFFFFF,#FFFFFF);" parent="wx6jZ7UeDeFFOWRXVseS-14" vertex="1">
                    <mxGeometry y="120" width="235" height="30" as="geometry"/>
                </mxCell>
                <mxCell id="wx6jZ7UeDeFFOWRXVseS-25" value="" style="shape=partialRectangle;connectable=0;fillColor=none;top=0;left=0;bottom=0;right=0;editable=1;overflow=hidden;html=1;whiteSpace=wrap;fontColor=light-dark(#FFFFFF,#FFFFFF);" parent="wx6jZ7UeDeFFOWRXVseS-24" vertex="1">
                    <mxGeometry width="45" height="30" as="geometry">
                        <mxRectangle width="45" height="30" as="alternateBounds"/>
                    </mxGeometry>
                </mxCell>
                <mxCell id="wx6jZ7UeDeFFOWRXVseS-26" value="avataer_url : string (NULL)" style="shape=partialRectangle;connectable=0;fillColor=none;top=0;left=0;bottom=0;right=0;align=left;spacingLeft=6;overflow=hidden;html=1;whiteSpace=wrap;fontColor=light-dark(#FFFFFF,#FFFFFF);" parent="wx6jZ7UeDeFFOWRXVseS-24" vertex="1">
                    <mxGeometry x="45" width="190" height="30" as="geometry">
                        <mxRectangle width="190" height="30" as="alternateBounds"/>
                    </mxGeometry>
                </mxCell>
                <mxCell id="wx6jZ7UeDeFFOWRXVseS-41" value="refresh_tokens" style="shape=table;startSize=30;container=1;collapsible=1;childLayout=tableLayout;fixedRows=1;rowLines=0;fontStyle=1;align=center;resizeLast=1;html=1;whiteSpace=wrap;fontColor=light-dark(#FFFFFF,#FFFFFF);" parent="1" vertex="1">
                    <mxGeometry x="320" y="30" width="222" height="180" as="geometry">
                        <mxRectangle x="440" y="40" width="120" height="30" as="alternateBounds"/>
                    </mxGeometry>
                </mxCell>
                <mxCell id="wx6jZ7UeDeFFOWRXVseS-42" value="" style="shape=tableRow;horizontal=0;startSize=0;swimlaneHead=0;swimlaneBody=0;fillColor=none;collapsible=0;dropTarget=0;points=[[0,0.5],[1,0.5]];portConstraint=eastwest;top=0;left=0;right=0;bottom=0;html=1;fontColor=light-dark(#FFFFFF,#FFFFFF);" parent="wx6jZ7UeDeFFOWRXVseS-41" vertex="1">
                    <mxGeometry y="30" width="222" height="30" as="geometry"/>
                </mxCell>
                <mxCell id="wx6jZ7UeDeFFOWRXVseS-43" value="PK" style="shape=partialRectangle;connectable=0;fillColor=none;top=0;left=0;bottom=0;right=0;fontStyle=1;overflow=hidden;html=1;whiteSpace=wrap;fontColor=light-dark(#FFFFFF,#FFFFFF);" parent="wx6jZ7UeDeFFOWRXVseS-42" vertex="1">
                    <mxGeometry width="60" height="30" as="geometry">
                        <mxRectangle width="60" height="30" as="alternateBounds"/>
                    </mxGeometry>
                </mxCell>
                <mxCell id="wx6jZ7UeDeFFOWRXVseS-44" value="refresh_tokens_id : UUID" style="shape=partialRectangle;connectable=0;fillColor=none;top=0;left=0;bottom=0;right=0;align=left;spacingLeft=6;fontStyle=5;overflow=hidden;html=1;whiteSpace=wrap;fontColor=light-dark(#FFFFFF,#FFFFFF);" parent="wx6jZ7UeDeFFOWRXVseS-42" vertex="1">
                    <mxGeometry x="60" width="162" height="30" as="geometry">
                        <mxRectangle width="162" height="30" as="alternateBounds"/>
                    </mxGeometry>
                </mxCell>
                <mxCell id="wx6jZ7UeDeFFOWRXVseS-45" value="" style="shape=tableRow;horizontal=0;startSize=0;swimlaneHead=0;swimlaneBody=0;fillColor=none;collapsible=0;dropTarget=0;points=[[0,0.5],[1,0.5]];portConstraint=eastwest;top=0;left=0;right=0;bottom=1;html=1;fontColor=light-dark(#FFFFFF,#FFFFFF);" parent="wx6jZ7UeDeFFOWRXVseS-41" vertex="1">
                    <mxGeometry y="60" width="222" height="30" as="geometry"/>
                </mxCell>
                <mxCell id="wx6jZ7UeDeFFOWRXVseS-46" value="FK" style="shape=partialRectangle;connectable=0;fillColor=none;top=0;left=0;bottom=0;right=0;fontStyle=1;overflow=hidden;html=1;whiteSpace=wrap;fontColor=light-dark(#FFFFFF,#FFFFFF);" parent="wx6jZ7UeDeFFOWRXVseS-45" vertex="1">
                    <mxGeometry width="60" height="30" as="geometry">
                        <mxRectangle width="60" height="30" as="alternateBounds"/>
                    </mxGeometry>
                </mxCell>
                <mxCell id="wx6jZ7UeDeFFOWRXVseS-47" value="user_id : UUID" style="shape=partialRectangle;connectable=0;fillColor=none;top=0;left=0;bottom=0;right=0;align=left;spacingLeft=6;fontStyle=5;overflow=hidden;html=1;whiteSpace=wrap;fontColor=light-dark(#FFFFFF,#FFFFFF);" parent="wx6jZ7UeDeFFOWRXVseS-45" vertex="1">
                    <mxGeometry x="60" width="162" height="30" as="geometry">
                        <mxRectangle width="162" height="30" as="alternateBounds"/>
                    </mxGeometry>
                </mxCell>
                <mxCell id="wx6jZ7UeDeFFOWRXVseS-48" value="" style="shape=tableRow;horizontal=0;startSize=0;swimlaneHead=0;swimlaneBody=0;fillColor=none;collapsible=0;dropTarget=0;points=[[0,0.5],[1,0.5]];portConstraint=eastwest;top=0;left=0;right=0;bottom=0;html=1;fontColor=light-dark(#FFFFFF,#FFFFFF);" parent="wx6jZ7UeDeFFOWRXVseS-41" vertex="1">
                    <mxGeometry y="90" width="222" height="30" as="geometry"/>
                </mxCell>
                <mxCell id="wx6jZ7UeDeFFOWRXVseS-49" value="" style="shape=partialRectangle;connectable=0;fillColor=none;top=0;left=0;bottom=0;right=0;editable=1;overflow=hidden;html=1;whiteSpace=wrap;fontColor=light-dark(#FFFFFF,#FFFFFF);" parent="wx6jZ7UeDeFFOWRXVseS-48" vertex="1">
                    <mxGeometry width="60" height="30" as="geometry">
                        <mxRectangle width="60" height="30" as="alternateBounds"/>
                    </mxGeometry>
                </mxCell>
                <mxCell id="wx6jZ7UeDeFFOWRXVseS-50" value="token : datetime" style="shape=partialRectangle;connectable=0;fillColor=none;top=0;left=0;bottom=0;right=0;align=left;spacingLeft=6;overflow=hidden;html=1;whiteSpace=wrap;fontColor=light-dark(#FFFFFF,#FFFFFF);" parent="wx6jZ7UeDeFFOWRXVseS-48" vertex="1">
                    <mxGeometry x="60" width="162" height="30" as="geometry">
                        <mxRectangle width="162" height="30" as="alternateBounds"/>
                    </mxGeometry>
                </mxCell>
                <mxCell id="wx6jZ7UeDeFFOWRXVseS-51" value="" style="shape=tableRow;horizontal=0;startSize=0;swimlaneHead=0;swimlaneBody=0;fillColor=none;collapsible=0;dropTarget=0;points=[[0,0.5],[1,0.5]];portConstraint=eastwest;top=0;left=0;right=0;bottom=0;html=1;fontColor=light-dark(#FFFFFF,#FFFFFF);" parent="wx6jZ7UeDeFFOWRXVseS-41" vertex="1">
                    <mxGeometry y="120" width="222" height="30" as="geometry"/>
                </mxCell>
                <mxCell id="wx6jZ7UeDeFFOWRXVseS-52" value="" style="shape=partialRectangle;connectable=0;fillColor=none;top=0;left=0;bottom=0;right=0;editable=1;overflow=hidden;html=1;whiteSpace=wrap;fontColor=light-dark(#FFFFFF,#FFFFFF);" parent="wx6jZ7UeDeFFOWRXVseS-51" vertex="1">
                    <mxGeometry width="60" height="30" as="geometry">
                        <mxRectangle width="60" height="30" as="alternateBounds"/>
                    </mxGeometry>
                </mxCell>
                <mxCell id="wx6jZ7UeDeFFOWRXVseS-53" value="expires_at : datetime" style="shape=partialRectangle;connectable=0;fillColor=none;top=0;left=0;bottom=0;right=0;align=left;spacingLeft=6;overflow=hidden;html=1;whiteSpace=wrap;fontColor=light-dark(#FFFFFF,#FFFFFF);" parent="wx6jZ7UeDeFFOWRXVseS-51" vertex="1">
                    <mxGeometry x="60" width="162" height="30" as="geometry">
                        <mxRectangle width="162" height="30" as="alternateBounds"/>
                    </mxGeometry>
                </mxCell>
                <mxCell id="wx6jZ7UeDeFFOWRXVseS-60" value="created_at : datetime" style="shape=partialRectangle;fillColor=none;align=left;verticalAlign=middle;strokeColor=none;spacingLeft=34;rotatable=0;points=[[0,0.5],[1,0.5]];portConstraint=eastwest;dropTarget=0;fontColor=light-dark(#FFFFFF,#FFFFFF);" parent="1" vertex="1">
                    <mxGeometry x="350" y="180" width="90" height="30" as="geometry"/>
                </mxCell>
                <mxCell id="wx6jZ7UeDeFFOWRXVseS-61" value="" style="shape=partialRectangle;top=0;left=0;bottom=0;fillColor=none;stokeWidth=1;align=left;verticalAlign=middle;spacingLeft=4;spacingRight=4;overflow=hidden;rotatable=0;points=[];portConstraint=eastwest;part=1;fontColor=light-dark(#FFFFFF,#FFFFFF);" parent="wx6jZ7UeDeFFOWRXVseS-60" vertex="1" connectable="0">
                    <mxGeometry width="30" height="30" as="geometry"/>
                </mxCell>
                <mxCell id="wx6jZ7UeDeFFOWRXVseS-62" value="" style="edgeStyle=entityRelationEdgeStyle;fontSize=12;html=1;endArrow=ERoneToMany;rounded=0;exitX=1;exitY=0.5;exitDx=0;exitDy=0;entryX=0;entryY=0.5;entryDx=0;entryDy=0;fontColor=light-dark(#FFFFFF,#FFFFFF);" parent="1" source="wx6jZ7UeDeFFOWRXVseS-2" target="wx6jZ7UeDeFFOWRXVseS-45" edge="1">
                    <mxGeometry width="100" height="100" relative="1" as="geometry">
                        <mxPoint x="380" y="310" as="sourcePoint"/>
                        <mxPoint x="480" y="210" as="targetPoint"/>
                        <Array as="points">
                            <mxPoint x="420" y="115"/>
                            <mxPoint x="410" y="115"/>
                        </Array>
                    </mxGeometry>
                </mxCell>
                <mxCell id="wx6jZ7UeDeFFOWRXVseS-68" value="" style="fontSize=12;html=1;endArrow=ERmandOne;startArrow=ERmandOne;rounded=0;exitX=1;exitY=0.5;exitDx=0;exitDy=0;edgeStyle=orthogonalEdgeStyle;fontColor=light-dark(#FFFFFF,#FFFFFF);" parent="1" edge="1" source="wx6jZ7UeDeFFOWRXVseS-18">
                    <mxGeometry width="100" height="100" relative="1" as="geometry">
                        <mxPoint x="50.00000000000023" y="515" as="sourcePoint"/>
                        <mxPoint x="40" y="90" as="targetPoint"/>
                        <Array as="points">
                            <mxPoint x="-60" y="495"/>
                            <mxPoint x="-60" y="90"/>
                        </Array>
                    </mxGeometry>
                </mxCell>
                <mxCell id="wx6jZ7UeDeFFOWRXVseS-72" value="biography : string" style="shape=partialRectangle;fillColor=none;align=left;verticalAlign=middle;strokeColor=none;spacingLeft=34;rotatable=0;points=[[0,0.5],[1,0.5]];portConstraint=eastwest;dropTarget=0;fontColor=light-dark(#FFFFFF,#FFFFFF);" parent="1" vertex="1">
                    <mxGeometry x="-387" y="570" width="90" height="30" as="geometry"/>
                </mxCell>
                <mxCell id="wx6jZ7UeDeFFOWRXVseS-73" value="" style="shape=partialRectangle;top=0;left=0;bottom=0;fillColor=none;stokeWidth=1;align=left;verticalAlign=middle;spacingLeft=4;spacingRight=4;overflow=hidden;rotatable=0;points=[];portConstraint=eastwest;part=1;fontColor=light-dark(#FFFFFF,#FFFFFF);" parent="wx6jZ7UeDeFFOWRXVseS-72" vertex="1" connectable="0">
                    <mxGeometry width="30" height="30" as="geometry"/>
                </mxCell>
                <mxCell id="wx6jZ7UeDeFFOWRXVseS-74" value="created-at : datetime" style="shape=partialRectangle;fillColor=none;align=left;verticalAlign=middle;strokeColor=none;spacingLeft=34;rotatable=0;points=[[0,0.5],[1,0.5]];portConstraint=eastwest;dropTarget=0;fontColor=light-dark(#FFFFFF,#FFFFFF);" parent="1" vertex="1">
                    <mxGeometry x="-387" y="600" width="90" height="30" as="geometry"/>
                </mxCell>
                <mxCell id="wx6jZ7UeDeFFOWRXVseS-75" value="" style="shape=partialRectangle;top=0;left=0;bottom=0;fillColor=none;stokeWidth=1;align=left;verticalAlign=middle;spacingLeft=4;spacingRight=4;overflow=hidden;rotatable=0;points=[];portConstraint=eastwest;part=1;fontColor=light-dark(#FFFFFF,#FFFFFF);" parent="wx6jZ7UeDeFFOWRXVseS-74" vertex="1" connectable="0">
                    <mxGeometry width="30" height="30" as="geometry"/>
                </mxCell>
                <mxCell id="wx6jZ7UeDeFFOWRXVseS-76" value="created_at : datetime" style="shape=partialRectangle;fillColor=none;align=left;verticalAlign=middle;strokeColor=none;spacingLeft=34;rotatable=0;points=[[0,0.5],[1,0.5]];portConstraint=eastwest;dropTarget=0;fontColor=light-dark(#FFFFFF,#FFFFFF);" parent="1" vertex="1">
                    <mxGeometry x="40" y="160" width="90" height="30" as="geometry"/>
                </mxCell>
                <mxCell id="wx6jZ7UeDeFFOWRXVseS-77" value="" style="shape=partialRectangle;top=0;left=0;bottom=0;fillColor=none;stokeWidth=1;align=left;verticalAlign=middle;spacingLeft=4;spacingRight=4;overflow=hidden;rotatable=0;points=[];portConstraint=eastwest;part=1;fontColor=light-dark(#FFFFFF,#FFFFFF);" parent="wx6jZ7UeDeFFOWRXVseS-76" vertex="1" connectable="0">
                    <mxGeometry width="30" height="30" as="geometry"/>
                </mxCell>
                <mxCell id="wx6jZ7UeDeFFOWRXVseS-78" value="users_relations" style="shape=table;startSize=30;container=1;collapsible=1;childLayout=tableLayout;fixedRows=1;rowLines=0;fontStyle=1;align=center;resizeLast=1;html=1;whiteSpace=wrap;fontColor=light-dark(#FFFFFF,#FFFFFF);" parent="1" vertex="1">
                    <mxGeometry x="-792" y="420" width="250" height="180" as="geometry"/>
                </mxCell>
                <mxCell id="wx6jZ7UeDeFFOWRXVseS-79" value="" style="shape=tableRow;horizontal=0;startSize=0;swimlaneHead=0;swimlaneBody=0;fillColor=none;collapsible=0;dropTarget=0;points=[[0,0.5],[1,0.5]];portConstraint=eastwest;top=0;left=0;right=0;bottom=0;html=1;fontColor=light-dark(#FFFFFF,#FFFFFF);" parent="wx6jZ7UeDeFFOWRXVseS-78" vertex="1">
                    <mxGeometry y="30" width="250" height="30" as="geometry"/>
                </mxCell>
                <mxCell id="wx6jZ7UeDeFFOWRXVseS-80" value="PK,FK1" style="shape=partialRectangle;connectable=0;fillColor=none;top=0;left=0;bottom=0;right=0;fontStyle=1;overflow=hidden;html=1;whiteSpace=wrap;fontColor=light-dark(#FFFFFF,#FFFFFF);" parent="wx6jZ7UeDeFFOWRXVseS-79" vertex="1">
                    <mxGeometry width="60" height="30" as="geometry">
                        <mxRectangle width="60" height="30" as="alternateBounds"/>
                    </mxGeometry>
                </mxCell>
                <mxCell id="wx6jZ7UeDeFFOWRXVseS-81" value="requesting_id : UUID" style="shape=partialRectangle;connectable=0;fillColor=none;top=0;left=0;bottom=0;right=0;align=left;spacingLeft=6;fontStyle=5;overflow=hidden;html=1;whiteSpace=wrap;fontColor=light-dark(#FFFFFF,#FFFFFF);" parent="wx6jZ7UeDeFFOWRXVseS-79" vertex="1">
                    <mxGeometry x="60" width="190" height="30" as="geometry">
                        <mxRectangle width="190" height="30" as="alternateBounds"/>
                    </mxGeometry>
                </mxCell>
                <mxCell id="wx6jZ7UeDeFFOWRXVseS-82" value="" style="shape=tableRow;horizontal=0;startSize=0;swimlaneHead=0;swimlaneBody=0;fillColor=none;collapsible=0;dropTarget=0;points=[[0,0.5],[1,0.5]];portConstraint=eastwest;top=0;left=0;right=0;bottom=1;html=1;fontColor=light-dark(#FFFFFF,#FFFFFF);" parent="wx6jZ7UeDeFFOWRXVseS-78" vertex="1">
                    <mxGeometry y="60" width="250" height="30" as="geometry"/>
                </mxCell>
                <mxCell id="wx6jZ7UeDeFFOWRXVseS-83" value="PK,FK1" style="shape=partialRectangle;connectable=0;fillColor=none;top=0;left=0;bottom=0;right=0;fontStyle=1;overflow=hidden;html=1;whiteSpace=wrap;fontColor=light-dark(#FFFFFF,#FFFFFF);" parent="wx6jZ7UeDeFFOWRXVseS-82" vertex="1">
                    <mxGeometry width="60" height="30" as="geometry">
                        <mxRectangle width="60" height="30" as="alternateBounds"/>
                    </mxGeometry>
                </mxCell>
                <mxCell id="wx6jZ7UeDeFFOWRXVseS-84" value="addressee_id : UUID" style="shape=partialRectangle;connectable=0;fillColor=none;top=0;left=0;bottom=0;right=0;align=left;spacingLeft=6;fontStyle=5;overflow=hidden;html=1;whiteSpace=wrap;fontColor=light-dark(#FFFFFF,#FFFFFF);" parent="wx6jZ7UeDeFFOWRXVseS-82" vertex="1">
                    <mxGeometry x="60" width="190" height="30" as="geometry">
                        <mxRectangle width="190" height="30" as="alternateBounds"/>
                    </mxGeometry>
                </mxCell>
                <mxCell id="wx6jZ7UeDeFFOWRXVseS-85" value="" style="shape=tableRow;horizontal=0;startSize=0;swimlaneHead=0;swimlaneBody=0;fillColor=none;collapsible=0;dropTarget=0;points=[[0,0.5],[1,0.5]];portConstraint=eastwest;top=0;left=0;right=0;bottom=0;html=1;fontColor=light-dark(#FFFFFF,#FFFFFF);" parent="wx6jZ7UeDeFFOWRXVseS-78" vertex="1">
                    <mxGeometry y="90" width="250" height="30" as="geometry"/>
                </mxCell>
                <mxCell id="wx6jZ7UeDeFFOWRXVseS-86" value="" style="shape=partialRectangle;connectable=0;fillColor=none;top=0;left=0;bottom=0;right=0;editable=1;overflow=hidden;html=1;whiteSpace=wrap;fontColor=light-dark(#FFFFFF,#FFFFFF);" parent="wx6jZ7UeDeFFOWRXVseS-85" vertex="1">
                    <mxGeometry width="60" height="30" as="geometry">
                        <mxRectangle width="60" height="30" as="alternateBounds"/>
                    </mxGeometry>
                </mxCell>
                <mxCell id="wx6jZ7UeDeFFOWRXVseS-87" value="" style="shape=partialRectangle;connectable=0;fillColor=none;top=0;left=0;bottom=0;right=0;align=left;spacingLeft=6;overflow=hidden;html=1;whiteSpace=wrap;fontColor=light-dark(#FFFFFF,#FFFFFF);" parent="wx6jZ7UeDeFFOWRXVseS-85" vertex="1">
                    <mxGeometry x="60" width="190" height="30" as="geometry">
                        <mxRectangle width="190" height="30" as="alternateBounds"/>
                    </mxGeometry>
                </mxCell>
                <mxCell id="wx6jZ7UeDeFFOWRXVseS-88" value="" style="shape=tableRow;horizontal=0;startSize=0;swimlaneHead=0;swimlaneBody=0;fillColor=none;collapsible=0;dropTarget=0;points=[[0,0.5],[1,0.5]];portConstraint=eastwest;top=0;left=0;right=0;bottom=0;html=1;fontColor=light-dark(#FFFFFF,#FFFFFF);" parent="wx6jZ7UeDeFFOWRXVseS-78" vertex="1">
                    <mxGeometry y="120" width="250" height="30" as="geometry"/>
                </mxCell>
                <mxCell id="wx6jZ7UeDeFFOWRXVseS-89" value="" style="shape=partialRectangle;connectable=0;fillColor=none;top=0;left=0;bottom=0;right=0;editable=1;overflow=hidden;html=1;whiteSpace=wrap;fontColor=light-dark(#FFFFFF,#FFFFFF);" parent="wx6jZ7UeDeFFOWRXVseS-88" vertex="1">
                    <mxGeometry width="60" height="30" as="geometry">
                        <mxRectangle width="60" height="30" as="alternateBounds"/>
                    </mxGeometry>
                </mxCell>
                <mxCell id="wx6jZ7UeDeFFOWRXVseS-90" value="sent_at : datetime" style="shape=partialRectangle;connectable=0;fillColor=none;top=0;left=0;bottom=0;right=0;align=left;spacingLeft=6;overflow=hidden;html=1;whiteSpace=wrap;fontColor=light-dark(#FFFFFF,#FFFFFF);" parent="wx6jZ7UeDeFFOWRXVseS-88" vertex="1">
                    <mxGeometry x="60" width="190" height="30" as="geometry">
                        <mxRectangle width="190" height="30" as="alternateBounds"/>
                    </mxGeometry>
                </mxCell>
                <mxCell id="wx6jZ7UeDeFFOWRXVseS-96" value="" style="edgeStyle=entityRelationEdgeStyle;fontSize=12;html=1;endArrow=ERoneToMany;rounded=0;exitX=0;exitY=0.5;exitDx=0;exitDy=0;entryX=1;entryY=0.5;entryDx=0;entryDy=0;fontColor=light-dark(#FFFFFF,#FFFFFF);" parent="1" source="wx6jZ7UeDeFFOWRXVseS-15" target="wx6jZ7UeDeFFOWRXVseS-79" edge="1">
                    <mxGeometry width="100" height="100" relative="1" as="geometry">
                        <mxPoint x="-532" y="610" as="sourcePoint"/>
                        <mxPoint x="-432" y="510" as="targetPoint"/>
                    </mxGeometry>
                </mxCell>
                <mxCell id="wx6jZ7UeDeFFOWRXVseS-98" value="" style="edgeStyle=entityRelationEdgeStyle;fontSize=12;html=1;endArrow=ERoneToMany;rounded=0;entryX=0.999;entryY=0.327;entryDx=0;entryDy=0;entryPerimeter=0;exitX=0;exitY=0.5;exitDx=0;exitDy=0;fontColor=light-dark(#FFFFFF,#FFFFFF);" parent="1" source="wx6jZ7UeDeFFOWRXVseS-15" target="wx6jZ7UeDeFFOWRXVseS-82" edge="1">
                    <mxGeometry width="100" height="100" relative="1" as="geometry">
                        <mxPoint x="-472" y="480" as="sourcePoint"/>
                        <mxPoint x="-452" y="530" as="targetPoint"/>
                        <Array as="points">
                            <mxPoint x="-412" y="480"/>
                        </Array>
                    </mxGeometry>
                </mxCell>
                <mxCell id="wx6jZ7UeDeFFOWRXVseS-99" value="the JWT isn&#39;t stored because it&#39;s calculated when is sent and every time is requested (STATE LESS)" style="text;html=1;align=center;verticalAlign=middle;resizable=0;points=[];autosize=1;strokeColor=none;fillColor=none;fontColor=light-dark(#FFFFFF,#FFFFFF);" parent="1" vertex="1">
                    <mxGeometry x="-40" y="-10" width="560" height="30" as="geometry"/>
                </mxCell>
                <mxCell id="wx6jZ7UeDeFFOWRXVseS-100" value="relation_status : relation_status" style="shape=partialRectangle;connectable=0;fillColor=none;top=0;left=0;bottom=0;right=0;align=left;spacingLeft=6;overflow=hidden;html=1;whiteSpace=wrap;fontColor=light-dark(#FFFFFF,#FFFFFF);" parent="1" vertex="1">
                    <mxGeometry x="-732" y="510" width="190" height="30" as="geometry">
                        <mxRectangle width="190" height="30" as="alternateBounds"/>
                    </mxGeometry>
                </mxCell>
                <mxCell id="wx6jZ7UeDeFFOWRXVseS-101" value="accepted_at : datetime" style="shape=partialRectangle;fillColor=none;align=left;verticalAlign=middle;strokeColor=none;spacingLeft=34;rotatable=0;points=[[0,0.5],[1,0.5]];portConstraint=eastwest;dropTarget=0;fontColor=light-dark(#FFFFFF,#FFFFFF);" parent="1" vertex="1">
                    <mxGeometry x="-762" y="570" width="90" height="30" as="geometry"/>
                </mxCell>
                <mxCell id="wx6jZ7UeDeFFOWRXVseS-102" value="" style="shape=partialRectangle;top=0;left=0;bottom=0;fillColor=none;stokeWidth=1;align=left;verticalAlign=middle;spacingLeft=4;spacingRight=4;overflow=hidden;rotatable=0;points=[];portConstraint=eastwest;part=1;fontColor=light-dark(#FFFFFF,#FFFFFF);" parent="wx6jZ7UeDeFFOWRXVseS-101" vertex="1" connectable="0">
                    <mxGeometry width="30" height="30" as="geometry"/>
                </mxCell>
                <mxCell id="wx6jZ7UeDeFFOWRXVseS-103" value="A user can have more friendships,&lt;div&gt;but a friendship belong just to two users&lt;/div&gt;" style="text;html=1;align=left;verticalAlign=middle;resizable=0;points=[];autosize=1;strokeColor=none;fillColor=none;fontColor=light-dark(#FFFFFF,#FFFFFF);" parent="1" vertex="1">
                    <mxGeometry x="-792" y="350" width="230" height="40" as="geometry"/>
                </mxCell>
                <mxCell id="wx6jZ7UeDeFFOWRXVseS-105" value="AUTH DB" style="text;html=1;align=center;verticalAlign=middle;resizable=0;points=[];autosize=1;strokeColor=none;fillColor=none;fontStyle=1;fontSize=17;fontColor=light-dark(#FFFFFF,#FFFFFF);" parent="1" vertex="1">
                    <mxGeometry x="10" y="-50" width="100" height="30" as="geometry"/>
                </mxCell>
                <mxCell id="wx6jZ7UeDeFFOWRXVseS-106" value="language :  string / enum ???" style="shape=partialRectangle;fillColor=none;align=left;verticalAlign=middle;strokeColor=none;spacingLeft=34;rotatable=0;points=[[0,0.5],[1,0.5]];portConstraint=eastwest;dropTarget=0;fontColor=light-dark(#FFFFFF,#FFFFFF);" parent="1" vertex="1">
                    <mxGeometry x="-387" y="630" width="90" height="30" as="geometry"/>
                </mxCell>
                <mxCell id="wx6jZ7UeDeFFOWRXVseS-107" value="" style="shape=partialRectangle;top=0;left=0;bottom=0;fillColor=none;stokeWidth=1;align=left;verticalAlign=middle;spacingLeft=4;spacingRight=4;overflow=hidden;rotatable=0;points=[];portConstraint=eastwest;part=1;fontColor=light-dark(#FFFFFF,#FFFFFF);" parent="wx6jZ7UeDeFFOWRXVseS-106" vertex="1" connectable="0">
                    <mxGeometry width="30" height="30" as="geometry"/>
                </mxCell>
                <mxCell id="wx6jZ7UeDeFFOWRXVseS-180" value="&lt;font style=&quot;font-size: 17px;&quot;&gt;&lt;b style=&quot;background-color: light-dark(#ffffff, var(--ge-dark-color, #121212));&quot;&gt;PROFILE DB&lt;/b&gt;&lt;/font&gt;" style="text;html=1;align=center;verticalAlign=middle;resizable=0;points=[];autosize=1;strokeColor=none;fillColor=none;fontColor=light-dark(#FFFFFF,#FFFFFF);" parent="1" vertex="1">
                    <mxGeometry x="-827" y="290" width="130" height="30" as="geometry"/>
                </mxCell>
                <mxCell id="wx6jZ7UeDeFFOWRXVseS-209" value="user_tris_stats" style="shape=table;startSize=30;container=1;collapsible=1;childLayout=tableLayout;fixedRows=1;rowLines=0;fontStyle=1;align=center;resizeLast=1;html=1;whiteSpace=wrap;fontColor=light-dark(#FFFFFF,#FFFFFF);" parent="1" vertex="1">
                    <mxGeometry x="-620" y="-331" width="170" height="150" as="geometry"/>
                </mxCell>
                <mxCell id="wx6jZ7UeDeFFOWRXVseS-210" value="" style="shape=tableRow;horizontal=0;startSize=0;swimlaneHead=0;swimlaneBody=0;fillColor=none;collapsible=0;dropTarget=0;points=[[0,0.5],[1,0.5]];portConstraint=eastwest;top=0;left=0;right=0;bottom=0;html=1;fontColor=light-dark(#FFFFFF,#FFFFFF);" parent="wx6jZ7UeDeFFOWRXVseS-209" vertex="1">
                    <mxGeometry y="30" width="170" height="30" as="geometry"/>
                </mxCell>
                <mxCell id="wx6jZ7UeDeFFOWRXVseS-211" value="PK" style="shape=partialRectangle;connectable=0;fillColor=none;top=0;left=0;bottom=0;right=0;fontStyle=1;overflow=hidden;html=1;whiteSpace=wrap;fontColor=light-dark(#FFFFFF,#FFFFFF);" parent="wx6jZ7UeDeFFOWRXVseS-210" vertex="1">
                    <mxGeometry width="40" height="30" as="geometry">
                        <mxRectangle width="40" height="30" as="alternateBounds"/>
                    </mxGeometry>
                </mxCell>
                <mxCell id="wx6jZ7UeDeFFOWRXVseS-212" value="user_stats_id : UUID" style="shape=partialRectangle;connectable=0;fillColor=none;top=0;left=0;bottom=0;right=0;align=left;spacingLeft=6;fontStyle=5;overflow=hidden;html=1;whiteSpace=wrap;fontColor=light-dark(#FFFFFF,#FFFFFF);" parent="wx6jZ7UeDeFFOWRXVseS-210" vertex="1">
                    <mxGeometry x="40" width="130" height="30" as="geometry">
                        <mxRectangle width="130" height="30" as="alternateBounds"/>
                    </mxGeometry>
                </mxCell>
                <mxCell id="wx6jZ7UeDeFFOWRXVseS-213" value="" style="shape=tableRow;horizontal=0;startSize=0;swimlaneHead=0;swimlaneBody=0;fillColor=none;collapsible=0;dropTarget=0;points=[[0,0.5],[1,0.5]];portConstraint=eastwest;top=0;left=0;right=0;bottom=1;html=1;fontColor=light-dark(#FFFFFF,#FFFFFF);" parent="wx6jZ7UeDeFFOWRXVseS-209" vertex="1">
                    <mxGeometry y="60" width="170" height="30" as="geometry"/>
                </mxCell>
                <mxCell id="wx6jZ7UeDeFFOWRXVseS-214" value="FK" style="shape=partialRectangle;connectable=0;fillColor=none;top=0;left=0;bottom=0;right=0;fontStyle=1;overflow=hidden;html=1;whiteSpace=wrap;fontColor=light-dark(#FFFFFF,#FFFFFF);" parent="wx6jZ7UeDeFFOWRXVseS-213" vertex="1">
                    <mxGeometry width="40" height="30" as="geometry">
                        <mxRectangle width="40" height="30" as="alternateBounds"/>
                    </mxGeometry>
                </mxCell>
                <mxCell id="wx6jZ7UeDeFFOWRXVseS-215" value="user_id : UUID" style="shape=partialRectangle;connectable=0;fillColor=none;top=0;left=0;bottom=0;right=0;align=left;spacingLeft=6;fontStyle=5;overflow=hidden;html=1;whiteSpace=wrap;fontColor=light-dark(#FFFFFF,#FFFFFF);" parent="wx6jZ7UeDeFFOWRXVseS-213" vertex="1">
                    <mxGeometry x="40" width="130" height="30" as="geometry">
                        <mxRectangle width="130" height="30" as="alternateBounds"/>
                    </mxGeometry>
                </mxCell>
                <mxCell id="wx6jZ7UeDeFFOWRXVseS-216" value="" style="shape=tableRow;horizontal=0;startSize=0;swimlaneHead=0;swimlaneBody=0;fillColor=none;collapsible=0;dropTarget=0;points=[[0,0.5],[1,0.5]];portConstraint=eastwest;top=0;left=0;right=0;bottom=0;html=1;fontColor=light-dark(#FFFFFF,#FFFFFF);" parent="wx6jZ7UeDeFFOWRXVseS-209" vertex="1">
                    <mxGeometry y="90" width="170" height="30" as="geometry"/>
                </mxCell>
                <mxCell id="wx6jZ7UeDeFFOWRXVseS-217" value="" style="shape=partialRectangle;connectable=0;fillColor=none;top=0;left=0;bottom=0;right=0;editable=1;overflow=hidden;html=1;whiteSpace=wrap;fontColor=light-dark(#FFFFFF,#FFFFFF);" parent="wx6jZ7UeDeFFOWRXVseS-216" vertex="1">
                    <mxGeometry width="40" height="30" as="geometry">
                        <mxRectangle width="40" height="30" as="alternateBounds"/>
                    </mxGeometry>
                </mxCell>
                <mxCell id="wx6jZ7UeDeFFOWRXVseS-218" value="wins : int (0)" style="shape=partialRectangle;connectable=0;fillColor=none;top=0;left=0;bottom=0;right=0;align=left;spacingLeft=6;overflow=hidden;html=1;whiteSpace=wrap;fontColor=light-dark(#FFFFFF,#FFFFFF);" parent="wx6jZ7UeDeFFOWRXVseS-216" vertex="1">
                    <mxGeometry x="40" width="130" height="30" as="geometry">
                        <mxRectangle width="130" height="30" as="alternateBounds"/>
                    </mxGeometry>
                </mxCell>
                <mxCell id="wx6jZ7UeDeFFOWRXVseS-219" value="" style="shape=tableRow;horizontal=0;startSize=0;swimlaneHead=0;swimlaneBody=0;fillColor=none;collapsible=0;dropTarget=0;points=[[0,0.5],[1,0.5]];portConstraint=eastwest;top=0;left=0;right=0;bottom=0;html=1;fontColor=light-dark(#FFFFFF,#FFFFFF);" parent="wx6jZ7UeDeFFOWRXVseS-209" vertex="1">
                    <mxGeometry y="120" width="170" height="30" as="geometry"/>
                </mxCell>
                <mxCell id="wx6jZ7UeDeFFOWRXVseS-220" value="" style="shape=partialRectangle;connectable=0;fillColor=none;top=0;left=0;bottom=0;right=0;editable=1;overflow=hidden;html=1;whiteSpace=wrap;fontColor=light-dark(#FFFFFF,#FFFFFF);" parent="wx6jZ7UeDeFFOWRXVseS-219" vertex="1">
                    <mxGeometry width="40" height="30" as="geometry">
                        <mxRectangle width="40" height="30" as="alternateBounds"/>
                    </mxGeometry>
                </mxCell>
                <mxCell id="wx6jZ7UeDeFFOWRXVseS-221" value="losses : int (0)" style="shape=partialRectangle;connectable=0;fillColor=none;top=0;left=0;bottom=0;right=0;align=left;spacingLeft=6;overflow=hidden;html=1;whiteSpace=wrap;fontColor=light-dark(#FFFFFF,#FFFFFF);" parent="wx6jZ7UeDeFFOWRXVseS-219" vertex="1">
                    <mxGeometry x="40" width="130" height="30" as="geometry">
                        <mxRectangle width="130" height="30" as="alternateBounds"/>
                    </mxGeometry>
                </mxCell>
                <mxCell id="wx6jZ7UeDeFFOWRXVseS-228" value="&lt;font style=&quot;font-size: 17px;&quot;&gt;&lt;b&gt;PONG&lt;/b&gt;&lt;/font&gt;" style="text;html=1;align=center;verticalAlign=middle;resizable=0;points=[];autosize=1;strokeColor=none;fillColor=none;fontColor=light-dark(#FFFFFF,#FFFFFF);" parent="1" vertex="1">
                    <mxGeometry x="-120" y="-740" width="70" height="30" as="geometry"/>
                </mxCell>
                <mxCell id="wx6jZ7UeDeFFOWRXVseS-286" value="&lt;font style=&quot;font-size: 17px;&quot;&gt;&lt;b style=&quot;&quot;&gt;TRIS&lt;/b&gt;&lt;/font&gt;" style="text;html=1;align=center;verticalAlign=middle;resizable=0;points=[];autosize=1;strokeColor=none;fillColor=none;fontColor=light-dark(#FFFFFF,#FFFFFF);" parent="1" vertex="1">
                    <mxGeometry x="-660" y="-620" width="60" height="30" as="geometry"/>
                </mxCell>
                <mxCell id="wx6jZ7UeDeFFOWRXVseS-312" value="" style="group;fontColor=light-dark(#FFFFFF,#FFFFFF);" parent="1" vertex="1" connectable="0">
                    <mxGeometry x="-590" y="-450" width="220" height="60" as="geometry"/>
                </mxCell>
                <mxCell id="wx6jZ7UeDeFFOWRXVseS-313" value="started_at : datetime" style="shape=partialRectangle;fillColor=none;align=left;verticalAlign=middle;strokeColor=none;spacingLeft=34;rotatable=0;points=[[0,0.5],[1,0.5]];portConstraint=eastwest;dropTarget=0;fontColor=light-dark(#FFFFFF,#FFFFFF);" parent="wx6jZ7UeDeFFOWRXVseS-312" vertex="1">
                    <mxGeometry y="30" width="90" height="30" as="geometry"/>
                </mxCell>
                <mxCell id="wx6jZ7UeDeFFOWRXVseS-314" value="" style="shape=partialRectangle;top=0;left=0;bottom=0;fillColor=none;stokeWidth=1;align=left;verticalAlign=middle;spacingLeft=4;spacingRight=4;overflow=hidden;rotatable=0;points=[];portConstraint=eastwest;part=1;fontColor=light-dark(#FFFFFF,#FFFFFF);" parent="wx6jZ7UeDeFFOWRXVseS-313" vertex="1" connectable="0">
                    <mxGeometry width="30" height="30" as="geometry"/>
                </mxCell>
                <mxCell id="bKWbJ0-E0UQl8z5ehJEL-175" value="winner : UUID" style="shape=partialRectangle;connectable=0;fillColor=none;top=0;left=0;bottom=0;right=0;align=left;spacingLeft=6;overflow=hidden;whiteSpace=wrap;html=1;fontColor=light-dark(#FFFFFF,#FFFFFF);" parent="wx6jZ7UeDeFFOWRXVseS-312" vertex="1">
                    <mxGeometry x="30" y="10" width="190" height="30" as="geometry">
                        <mxRectangle width="190" height="30" as="alternateBounds"/>
                    </mxGeometry>
                </mxCell>
                <mxCell id="wx6jZ7UeDeFFOWRXVseS-317" value="chats" style="shape=table;startSize=30;container=1;collapsible=1;childLayout=tableLayout;fixedRows=1;rowLines=0;fontStyle=1;align=center;resizeLast=1;html=1;fontColor=light-dark(#FFFFFF,#FFFFFF);" parent="1" vertex="1">
                    <mxGeometry x="-530" y="-90" width="180" height="150" as="geometry"/>
                </mxCell>
                <mxCell id="bKWbJ0-E0UQl8z5ehJEL-178" value="" style="shape=tableRow;horizontal=0;startSize=0;swimlaneHead=0;swimlaneBody=0;fillColor=none;collapsible=0;dropTarget=0;points=[[0,0.5],[1,0.5]];portConstraint=eastwest;top=0;left=0;right=0;bottom=0;fontColor=light-dark(#FFFFFF,#FFFFFF);" parent="wx6jZ7UeDeFFOWRXVseS-317" vertex="1">
                    <mxGeometry y="30" width="180" height="30" as="geometry"/>
                </mxCell>
                <mxCell id="bKWbJ0-E0UQl8z5ehJEL-179" value="&lt;span style=&quot;font-weight: 700;&quot;&gt;PK&lt;/span&gt;" style="shape=partialRectangle;connectable=0;fillColor=none;top=0;left=0;bottom=0;right=0;fontStyle=0;overflow=hidden;whiteSpace=wrap;html=1;fontColor=light-dark(#FFFFFF,#FFFFFF);" parent="bKWbJ0-E0UQl8z5ehJEL-178" vertex="1">
                    <mxGeometry width="30" height="30" as="geometry">
                        <mxRectangle width="30" height="30" as="alternateBounds"/>
                    </mxGeometry>
                </mxCell>
                <mxCell id="bKWbJ0-E0UQl8z5ehJEL-180" value="&lt;span style=&quot;font-weight: 700; text-decoration-line: underline;&quot;&gt;chat_id : UUID&lt;/span&gt;" style="shape=partialRectangle;connectable=0;fillColor=none;top=0;left=0;bottom=0;right=0;align=left;spacingLeft=6;fontStyle=0;overflow=hidden;whiteSpace=wrap;html=1;fontColor=light-dark(#FFFFFF,#FFFFFF);" parent="bKWbJ0-E0UQl8z5ehJEL-178" vertex="1">
                    <mxGeometry x="30" width="150" height="30" as="geometry">
                        <mxRectangle width="150" height="30" as="alternateBounds"/>
                    </mxGeometry>
                </mxCell>
                <mxCell id="bKWbJ0-E0UQl8z5ehJEL-181" value="" style="shape=tableRow;horizontal=0;startSize=0;swimlaneHead=0;swimlaneBody=0;fillColor=none;collapsible=0;dropTarget=0;points=[[0,0.5],[1,0.5]];portConstraint=eastwest;top=0;left=0;right=0;bottom=0;fontColor=light-dark(#FFFFFF,#FFFFFF);" parent="wx6jZ7UeDeFFOWRXVseS-317" vertex="1">
                    <mxGeometry y="60" width="180" height="30" as="geometry"/>
                </mxCell>
                <mxCell id="bKWbJ0-E0UQl8z5ehJEL-182" value="&lt;b&gt;FK&lt;/b&gt;" style="shape=partialRectangle;connectable=0;fillColor=none;top=0;left=0;bottom=0;right=0;fontStyle=0;overflow=hidden;whiteSpace=wrap;html=1;fontColor=light-dark(#FFFFFF,#FFFFFF);" parent="bKWbJ0-E0UQl8z5ehJEL-181" vertex="1">
                    <mxGeometry width="30" height="30" as="geometry">
                        <mxRectangle width="30" height="30" as="alternateBounds"/>
                    </mxGeometry>
                </mxCell>
                <mxCell id="bKWbJ0-E0UQl8z5ehJEL-183" value="&lt;span style=&quot;font-weight: 700; text-decoration-line: underline;&quot;&gt;user1_id : UUID&lt;/span&gt;" style="shape=partialRectangle;connectable=0;fillColor=none;top=0;left=0;bottom=0;right=0;align=left;spacingLeft=6;fontStyle=0;overflow=hidden;whiteSpace=wrap;html=1;fontColor=light-dark(#FFFFFF,#FFFFFF);" parent="bKWbJ0-E0UQl8z5ehJEL-181" vertex="1">
                    <mxGeometry x="30" width="150" height="30" as="geometry">
                        <mxRectangle width="150" height="30" as="alternateBounds"/>
                    </mxGeometry>
                </mxCell>
                <mxCell id="wx6jZ7UeDeFFOWRXVseS-318" value="" style="shape=tableRow;horizontal=0;startSize=0;swimlaneHead=0;swimlaneBody=0;fillColor=none;collapsible=0;dropTarget=0;points=[[0,0.5],[1,0.5]];portConstraint=eastwest;top=0;left=0;right=0;bottom=1;fontColor=light-dark(#FFFFFF,#FFFFFF);" parent="wx6jZ7UeDeFFOWRXVseS-317" vertex="1">
                    <mxGeometry y="90" width="180" height="30" as="geometry"/>
                </mxCell>
                <mxCell id="wx6jZ7UeDeFFOWRXVseS-319" value="FK" style="shape=partialRectangle;connectable=0;fillColor=none;top=0;left=0;bottom=0;right=0;fontStyle=1;overflow=hidden;whiteSpace=wrap;html=1;fontColor=light-dark(#FFFFFF,#FFFFFF);" parent="wx6jZ7UeDeFFOWRXVseS-318" vertex="1">
                    <mxGeometry width="30" height="30" as="geometry">
                        <mxRectangle width="30" height="30" as="alternateBounds"/>
                    </mxGeometry>
                </mxCell>
                <mxCell id="wx6jZ7UeDeFFOWRXVseS-320" value="user2_id : UUID" style="shape=partialRectangle;connectable=0;fillColor=none;top=0;left=0;bottom=0;right=0;align=left;spacingLeft=6;fontStyle=5;overflow=hidden;whiteSpace=wrap;html=1;fontColor=light-dark(#FFFFFF,#FFFFFF);" parent="wx6jZ7UeDeFFOWRXVseS-318" vertex="1">
                    <mxGeometry x="30" width="150" height="30" as="geometry">
                        <mxRectangle width="150" height="30" as="alternateBounds"/>
                    </mxGeometry>
                </mxCell>
                <mxCell id="wx6jZ7UeDeFFOWRXVseS-321" value="" style="shape=tableRow;horizontal=0;startSize=0;swimlaneHead=0;swimlaneBody=0;fillColor=none;collapsible=0;dropTarget=0;points=[[0,0.5],[1,0.5]];portConstraint=eastwest;top=0;left=0;right=0;bottom=0;fontColor=light-dark(#FFFFFF,#FFFFFF);" parent="wx6jZ7UeDeFFOWRXVseS-317" vertex="1">
                    <mxGeometry y="120" width="180" height="30" as="geometry"/>
                </mxCell>
                <mxCell id="wx6jZ7UeDeFFOWRXVseS-322" value="" style="shape=partialRectangle;connectable=0;fillColor=none;top=0;left=0;bottom=0;right=0;editable=1;overflow=hidden;whiteSpace=wrap;html=1;fontColor=light-dark(#FFFFFF,#FFFFFF);" parent="wx6jZ7UeDeFFOWRXVseS-321" vertex="1">
                    <mxGeometry width="30" height="30" as="geometry">
                        <mxRectangle width="30" height="30" as="alternateBounds"/>
                    </mxGeometry>
                </mxCell>
                <mxCell id="wx6jZ7UeDeFFOWRXVseS-323" value="created_at : datetime" style="shape=partialRectangle;connectable=0;fillColor=none;top=0;left=0;bottom=0;right=0;align=left;spacingLeft=6;overflow=hidden;whiteSpace=wrap;html=1;fontColor=light-dark(#FFFFFF,#FFFFFF);" parent="wx6jZ7UeDeFFOWRXVseS-321" vertex="1">
                    <mxGeometry x="30" width="150" height="30" as="geometry">
                        <mxRectangle width="150" height="30" as="alternateBounds"/>
                    </mxGeometry>
                </mxCell>
                <mxCell id="wx6jZ7UeDeFFOWRXVseS-339" value="when a user is deleted is automatically erased&lt;div&gt;also from db&amp;nbsp;&lt;span style=&quot;background-color: transparent;&quot;&gt;for GPR compliance&lt;/span&gt;&lt;/div&gt;" style="text;html=1;align=left;verticalAlign=middle;resizable=0;points=[];autosize=1;strokeColor=none;fillColor=none;fontColor=light-dark(#FFFFFF,#FFFFFF);" parent="1" vertex="1">
                    <mxGeometry x="-467" y="380" width="270" height="40" as="geometry"/>
                </mxCell>
                <mxCell id="bKWbJ0-E0UQl8z5ehJEL-34" value="" style="edgeStyle=orthogonalEdgeStyle;fontSize=12;html=1;endArrow=ERzeroToMany;endFill=1;rounded=0;entryX=0;entryY=0.5;entryDx=0;entryDy=0;exitX=0.001;exitY=0.351;exitDx=0;exitDy=0;exitPerimeter=0;fontColor=light-dark(#FFFFFF,#FFFFFF);" parent="1" edge="1">
                    <mxGeometry width="100" height="100" relative="1" as="geometry">
                        <mxPoint x="40.000000000000064" y="80.52999999999997" as="sourcePoint"/>
                        <mxPoint x="-140.18" y="-530" as="targetPoint"/>
                        <Array as="points">
                            <mxPoint x="30" y="80"/>
                            <mxPoint x="30" y="30"/>
                            <mxPoint x="-120" y="30"/>
                            <mxPoint x="-120" y="-200"/>
                            <mxPoint x="-170" y="-200"/>
                            <mxPoint x="-170" y="-530"/>
                        </Array>
                    </mxGeometry>
                </mxCell>
                <mxCell id="bKWbJ0-E0UQl8z5ehJEL-56" value="" style="edgeStyle=orthogonalEdgeStyle;fontSize=12;html=1;endArrow=ERoneToMany;rounded=0;entryX=1;entryY=0.5;entryDx=0;entryDy=0;fontColor=light-dark(#FFFFFF,#FFFFFF);" parent="1" target="bKWbJ0-E0UQl8z5ehJEL-171" edge="1">
                    <mxGeometry width="100" height="100" relative="1" as="geometry">
                        <mxPoint x="40" y="80" as="sourcePoint"/>
                        <mxPoint x="-270" y="-450" as="targetPoint"/>
                        <Array as="points">
                            <mxPoint x="10" y="80"/>
                            <mxPoint x="10" y="50"/>
                            <mxPoint x="-210" y="50"/>
                            <mxPoint x="-210" y="-330"/>
                            <mxPoint x="-350" y="-330"/>
                            <mxPoint x="-350" y="-490"/>
                        </Array>
                    </mxGeometry>
                </mxCell>
                <mxCell id="bKWbJ0-E0UQl8z5ehJEL-158" value="Table" style="shape=table;startSize=30;container=1;collapsible=1;childLayout=tableLayout;fixedRows=1;rowLines=0;fontStyle=1;align=center;resizeLast=1;html=1;whiteSpace=wrap;fontColor=light-dark(#FFFFFF,#FFFFFF);" parent="1" vertex="1">
                    <mxGeometry x="-620" y="-565" width="220" height="205" as="geometry"/>
                </mxCell>
                <mxCell id="bKWbJ0-E0UQl8z5ehJEL-159" value="" style="shape=tableRow;horizontal=0;startSize=0;swimlaneHead=0;swimlaneBody=0;fillColor=none;collapsible=0;dropTarget=0;points=[[0,0.5],[1,0.5]];portConstraint=eastwest;top=0;left=0;right=0;bottom=0;html=1;fontColor=light-dark(#FFFFFF,#FFFFFF);" parent="bKWbJ0-E0UQl8z5ehJEL-158" vertex="1">
                    <mxGeometry y="30" width="220" height="30" as="geometry"/>
                </mxCell>
                <mxCell id="bKWbJ0-E0UQl8z5ehJEL-160" value="PK" style="shape=partialRectangle;connectable=0;fillColor=none;top=0;left=0;bottom=0;right=0;fontStyle=1;overflow=hidden;html=1;whiteSpace=wrap;fontColor=light-dark(#FFFFFF,#FFFFFF);" parent="bKWbJ0-E0UQl8z5ehJEL-159" vertex="1">
                    <mxGeometry width="60" height="30" as="geometry">
                        <mxRectangle width="60" height="30" as="alternateBounds"/>
                    </mxGeometry>
                </mxCell>
                <mxCell id="bKWbJ0-E0UQl8z5ehJEL-161" value="match_id : UUID" style="shape=partialRectangle;connectable=0;fillColor=none;top=0;left=0;bottom=0;right=0;align=left;spacingLeft=6;fontStyle=5;overflow=hidden;html=1;whiteSpace=wrap;fontColor=light-dark(#FFFFFF,#FFFFFF);" parent="bKWbJ0-E0UQl8z5ehJEL-159" vertex="1">
                    <mxGeometry x="60" width="160" height="30" as="geometry">
                        <mxRectangle width="160" height="30" as="alternateBounds"/>
                    </mxGeometry>
                </mxCell>
                <mxCell id="bKWbJ0-E0UQl8z5ehJEL-171" value="" style="shape=tableRow;horizontal=0;startSize=0;swimlaneHead=0;swimlaneBody=0;fillColor=none;collapsible=0;dropTarget=0;points=[[0,0.5],[1,0.5]];portConstraint=eastwest;top=0;left=0;right=0;bottom=0;fontColor=light-dark(#FFFFFF,#FFFFFF);" parent="bKWbJ0-E0UQl8z5ehJEL-158" vertex="1">
                    <mxGeometry y="60" width="220" height="30" as="geometry"/>
                </mxCell>
                <mxCell id="bKWbJ0-E0UQl8z5ehJEL-172" value="&lt;b&gt;FK&lt;/b&gt;" style="shape=partialRectangle;connectable=0;fillColor=none;top=0;left=0;bottom=0;right=0;fontStyle=0;overflow=hidden;whiteSpace=wrap;html=1;fontColor=light-dark(#FFFFFF,#FFFFFF);" parent="bKWbJ0-E0UQl8z5ehJEL-171" vertex="1">
                    <mxGeometry width="60" height="30" as="geometry">
                        <mxRectangle width="60" height="30" as="alternateBounds"/>
                    </mxGeometry>
                </mxCell>
                <mxCell id="bKWbJ0-E0UQl8z5ehJEL-173" value="&lt;span style=&quot;font-weight: 700; text-decoration-line: underline;&quot;&gt;player2_id : UUID&lt;/span&gt;" style="shape=partialRectangle;connectable=0;fillColor=none;top=0;left=0;bottom=0;right=0;align=left;spacingLeft=6;fontStyle=0;overflow=hidden;whiteSpace=wrap;html=1;fontColor=light-dark(#FFFFFF,#FFFFFF);" parent="bKWbJ0-E0UQl8z5ehJEL-171" vertex="1">
                    <mxGeometry x="60" width="160" height="30" as="geometry">
                        <mxRectangle width="160" height="30" as="alternateBounds"/>
                    </mxGeometry>
                </mxCell>
                <mxCell id="bKWbJ0-E0UQl8z5ehJEL-162" value="" style="shape=tableRow;horizontal=0;startSize=0;swimlaneHead=0;swimlaneBody=0;fillColor=none;collapsible=0;dropTarget=0;points=[[0,0.5],[1,0.5]];portConstraint=eastwest;top=0;left=0;right=0;bottom=1;html=1;fontColor=light-dark(#FFFFFF,#FFFFFF);" parent="bKWbJ0-E0UQl8z5ehJEL-158" vertex="1">
                    <mxGeometry y="90" width="220" height="30" as="geometry"/>
                </mxCell>
                <mxCell id="bKWbJ0-E0UQl8z5ehJEL-163" value="FK" style="shape=partialRectangle;connectable=0;fillColor=none;top=0;left=0;bottom=0;right=0;fontStyle=1;overflow=hidden;html=1;whiteSpace=wrap;fontColor=light-dark(#FFFFFF,#FFFFFF);" parent="bKWbJ0-E0UQl8z5ehJEL-162" vertex="1">
                    <mxGeometry width="60" height="30" as="geometry">
                        <mxRectangle width="60" height="30" as="alternateBounds"/>
                    </mxGeometry>
                </mxCell>
                <mxCell id="bKWbJ0-E0UQl8z5ehJEL-164" value="player1_id : UUID" style="shape=partialRectangle;connectable=0;fillColor=none;top=0;left=0;bottom=0;right=0;align=left;spacingLeft=6;fontStyle=5;overflow=hidden;html=1;whiteSpace=wrap;fontColor=light-dark(#FFFFFF,#FFFFFF);" parent="bKWbJ0-E0UQl8z5ehJEL-162" vertex="1">
                    <mxGeometry x="60" width="160" height="30" as="geometry">
                        <mxRectangle width="160" height="30" as="alternateBounds"/>
                    </mxGeometry>
                </mxCell>
                <mxCell id="bKWbJ0-E0UQl8z5ehJEL-168" value="" style="shape=tableRow;horizontal=0;startSize=0;swimlaneHead=0;swimlaneBody=0;fillColor=none;collapsible=0;dropTarget=0;points=[[0,0.5],[1,0.5]];portConstraint=eastwest;top=0;left=0;right=0;bottom=0;html=1;fontColor=light-dark(#FFFFFF,#FFFFFF);" parent="bKWbJ0-E0UQl8z5ehJEL-158" vertex="1">
                    <mxGeometry y="120" width="220" height="65" as="geometry"/>
                </mxCell>
                <mxCell id="bKWbJ0-E0UQl8z5ehJEL-169" value="" style="shape=partialRectangle;connectable=0;fillColor=none;top=0;left=0;bottom=0;right=0;editable=1;overflow=hidden;html=1;whiteSpace=wrap;fontColor=light-dark(#FFFFFF,#FFFFFF);" parent="bKWbJ0-E0UQl8z5ehJEL-168" vertex="1">
                    <mxGeometry width="60" height="65" as="geometry">
                        <mxRectangle width="60" height="65" as="alternateBounds"/>
                    </mxGeometry>
                </mxCell>
                <mxCell id="bKWbJ0-E0UQl8z5ehJEL-170" value="" style="shape=partialRectangle;connectable=0;fillColor=none;top=0;left=0;bottom=0;right=0;align=left;spacingLeft=6;overflow=hidden;html=1;whiteSpace=wrap;fontColor=light-dark(#FFFFFF,#FFFFFF);" parent="bKWbJ0-E0UQl8z5ehJEL-168" vertex="1">
                    <mxGeometry x="60" width="160" height="65" as="geometry">
                        <mxRectangle width="160" height="65" as="alternateBounds"/>
                    </mxGeometry>
                </mxCell>
                <mxCell id="wx6jZ7UeDeFFOWRXVseS-315" value="finished_at : datetime" style="shape=partialRectangle;fillColor=none;align=left;verticalAlign=middle;strokeColor=none;spacingLeft=34;rotatable=0;points=[[0,0.5],[1,0.5]];portConstraint=eastwest;dropTarget=0;fontColor=light-dark(#FFFFFF,#FFFFFF);" parent="1" vertex="1">
                    <mxGeometry x="-590" y="-390" width="90" height="30" as="geometry"/>
                </mxCell>
                <mxCell id="wx6jZ7UeDeFFOWRXVseS-316" value="" style="shape=partialRectangle;top=0;left=0;bottom=0;fillColor=none;stokeWidth=1;align=left;verticalAlign=middle;spacingLeft=4;spacingRight=4;overflow=hidden;rotatable=0;points=[];portConstraint=eastwest;part=1;fontColor=light-dark(#FFFFFF,#FFFFFF);" parent="wx6jZ7UeDeFFOWRXVseS-315" vertex="1" connectable="0">
                    <mxGeometry width="30" height="30" as="geometry"/>
                </mxCell>
                <mxCell id="bKWbJ0-E0UQl8z5ehJEL-176" value="" style="fontSize=12;html=1;endArrow=ERoneToMany;rounded=0;entryX=1;entryY=0.5;entryDx=0;entryDy=0;fontColor=light-dark(#FFFFFF,#FFFFFF);" parent="1" target="bKWbJ0-E0UQl8z5ehJEL-162" edge="1">
                    <mxGeometry width="100" height="100" relative="1" as="geometry">
                        <mxPoint x="-350" y="-460" as="sourcePoint"/>
                        <mxPoint x="-270" y="-470" as="targetPoint"/>
                    </mxGeometry>
                </mxCell>
                <mxCell id="bKWbJ0-E0UQl8z5ehJEL-177" value="" style="fontSize=12;html=1;endArrow=ERoneToMany;rounded=0;entryX=1;entryY=0.5;entryDx=0;entryDy=0;edgeStyle=orthogonalEdgeStyle;fontColor=light-dark(#FFFFFF,#FFFFFF);" parent="1" target="wx6jZ7UeDeFFOWRXVseS-213" edge="1">
                    <mxGeometry width="100" height="100" relative="1" as="geometry">
                        <mxPoint x="-350" y="-330" as="sourcePoint"/>
                        <mxPoint x="-270" y="-150" as="targetPoint"/>
                    </mxGeometry>
                </mxCell>
                <mxCell id="bKWbJ0-E0UQl8z5ehJEL-184" value="chat_line" style="shape=table;startSize=30;container=1;collapsible=1;childLayout=tableLayout;fixedRows=1;rowLines=0;fontStyle=1;align=center;resizeLast=1;html=1;fontColor=light-dark(#FFFFFF,#FFFFFF);" parent="1" vertex="1">
                    <mxGeometry x="-530" y="80" width="180" height="180" as="geometry"/>
                </mxCell>
                <mxCell id="bKWbJ0-E0UQl8z5ehJEL-197" value="" style="shape=tableRow;horizontal=0;startSize=0;swimlaneHead=0;swimlaneBody=0;fillColor=none;collapsible=0;dropTarget=0;points=[[0,0.5],[1,0.5]];portConstraint=eastwest;top=0;left=0;right=0;bottom=0;fontColor=light-dark(#FFFFFF,#FFFFFF);" parent="bKWbJ0-E0UQl8z5ehJEL-184" vertex="1">
                    <mxGeometry y="30" width="180" height="30" as="geometry"/>
                </mxCell>
                <mxCell id="bKWbJ0-E0UQl8z5ehJEL-198" value="&lt;span style=&quot;font-weight: 700;&quot;&gt;PK&lt;/span&gt;" style="shape=partialRectangle;connectable=0;fillColor=none;top=0;left=0;bottom=0;right=0;fontStyle=0;overflow=hidden;whiteSpace=wrap;html=1;fontColor=light-dark(#FFFFFF,#FFFFFF);" parent="bKWbJ0-E0UQl8z5ehJEL-197" vertex="1">
                    <mxGeometry width="30" height="30" as="geometry">
                        <mxRectangle width="30" height="30" as="alternateBounds"/>
                    </mxGeometry>
                </mxCell>
                <mxCell id="bKWbJ0-E0UQl8z5ehJEL-199" value="&lt;span style=&quot;font-weight: 700; text-decoration-line: underline;&quot;&gt;chat_line_id : UUID&lt;/span&gt;" style="shape=partialRectangle;connectable=0;fillColor=none;top=0;left=0;bottom=0;right=0;align=left;spacingLeft=6;fontStyle=0;overflow=hidden;whiteSpace=wrap;html=1;fontColor=light-dark(#FFFFFF,#FFFFFF);" parent="bKWbJ0-E0UQl8z5ehJEL-197" vertex="1">
                    <mxGeometry x="30" width="150" height="30" as="geometry">
                        <mxRectangle width="150" height="30" as="alternateBounds"/>
                    </mxGeometry>
                </mxCell>
                <mxCell id="bKWbJ0-E0UQl8z5ehJEL-200" value="" style="shape=tableRow;horizontal=0;startSize=0;swimlaneHead=0;swimlaneBody=0;fillColor=none;collapsible=0;dropTarget=0;points=[[0,0.5],[1,0.5]];portConstraint=eastwest;top=0;left=0;right=0;bottom=0;fontColor=light-dark(#FFFFFF,#FFFFFF);" parent="bKWbJ0-E0UQl8z5ehJEL-184" vertex="1">
                    <mxGeometry y="60" width="180" height="30" as="geometry"/>
                </mxCell>
                <mxCell id="bKWbJ0-E0UQl8z5ehJEL-201" value="&lt;b&gt;FK&lt;/b&gt;" style="shape=partialRectangle;connectable=0;fillColor=none;top=0;left=0;bottom=0;right=0;fontStyle=0;overflow=hidden;whiteSpace=wrap;html=1;fontColor=light-dark(#FFFFFF,#FFFFFF);" parent="bKWbJ0-E0UQl8z5ehJEL-200" vertex="1">
                    <mxGeometry width="30" height="30" as="geometry">
                        <mxRectangle width="30" height="30" as="alternateBounds"/>
                    </mxGeometry>
                </mxCell>
                <mxCell id="bKWbJ0-E0UQl8z5ehJEL-202" value="&lt;b&gt;&lt;u&gt;chat_id : UUID&lt;/u&gt;&lt;/b&gt;" style="shape=partialRectangle;connectable=0;fillColor=none;top=0;left=0;bottom=0;right=0;align=left;spacingLeft=6;fontStyle=0;overflow=hidden;whiteSpace=wrap;html=1;fontColor=light-dark(#FFFFFF,#FFFFFF);" parent="bKWbJ0-E0UQl8z5ehJEL-200" vertex="1">
                    <mxGeometry x="30" width="150" height="30" as="geometry">
                        <mxRectangle width="150" height="30" as="alternateBounds"/>
                    </mxGeometry>
                </mxCell>
                <mxCell id="bKWbJ0-E0UQl8z5ehJEL-185" value="" style="shape=tableRow;horizontal=0;startSize=0;swimlaneHead=0;swimlaneBody=0;fillColor=none;collapsible=0;dropTarget=0;points=[[0,0.5],[1,0.5]];portConstraint=eastwest;top=0;left=0;right=0;bottom=1;fontColor=light-dark(#FFFFFF,#FFFFFF);" parent="bKWbJ0-E0UQl8z5ehJEL-184" vertex="1">
                    <mxGeometry y="90" width="180" height="30" as="geometry"/>
                </mxCell>
                <mxCell id="bKWbJ0-E0UQl8z5ehJEL-186" value="FK" style="shape=partialRectangle;connectable=0;fillColor=none;top=0;left=0;bottom=0;right=0;fontStyle=1;overflow=hidden;whiteSpace=wrap;html=1;fontColor=light-dark(#FFFFFF,#FFFFFF);" parent="bKWbJ0-E0UQl8z5ehJEL-185" vertex="1">
                    <mxGeometry width="30" height="30" as="geometry">
                        <mxRectangle width="30" height="30" as="alternateBounds"/>
                    </mxGeometry>
                </mxCell>
                <mxCell id="bKWbJ0-E0UQl8z5ehJEL-187" value="sender_id : UUID" style="shape=partialRectangle;connectable=0;fillColor=none;top=0;left=0;bottom=0;right=0;align=left;spacingLeft=6;fontStyle=5;overflow=hidden;whiteSpace=wrap;html=1;fontColor=light-dark(#FFFFFF,#FFFFFF);" parent="bKWbJ0-E0UQl8z5ehJEL-185" vertex="1">
                    <mxGeometry x="30" width="150" height="30" as="geometry">
                        <mxRectangle width="150" height="30" as="alternateBounds"/>
                    </mxGeometry>
                </mxCell>
                <mxCell id="bKWbJ0-E0UQl8z5ehJEL-188" value="" style="shape=tableRow;horizontal=0;startSize=0;swimlaneHead=0;swimlaneBody=0;fillColor=none;collapsible=0;dropTarget=0;points=[[0,0.5],[1,0.5]];portConstraint=eastwest;top=0;left=0;right=0;bottom=0;fontColor=light-dark(#FFFFFF,#FFFFFF);" parent="bKWbJ0-E0UQl8z5ehJEL-184" vertex="1">
                    <mxGeometry y="120" width="180" height="30" as="geometry"/>
                </mxCell>
                <mxCell id="bKWbJ0-E0UQl8z5ehJEL-189" value="" style="shape=partialRectangle;connectable=0;fillColor=none;top=0;left=0;bottom=0;right=0;editable=1;overflow=hidden;whiteSpace=wrap;html=1;fontColor=light-dark(#FFFFFF,#FFFFFF);" parent="bKWbJ0-E0UQl8z5ehJEL-188" vertex="1">
                    <mxGeometry width="30" height="30" as="geometry">
                        <mxRectangle width="30" height="30" as="alternateBounds"/>
                    </mxGeometry>
                </mxCell>
                <mxCell id="bKWbJ0-E0UQl8z5ehJEL-190" value="content : string" style="shape=partialRectangle;connectable=0;fillColor=none;top=0;left=0;bottom=0;right=0;align=left;spacingLeft=6;overflow=hidden;whiteSpace=wrap;html=1;fontColor=light-dark(#FFFFFF,#FFFFFF);" parent="bKWbJ0-E0UQl8z5ehJEL-188" vertex="1">
                    <mxGeometry x="30" width="150" height="30" as="geometry">
                        <mxRectangle width="150" height="30" as="alternateBounds"/>
                    </mxGeometry>
                </mxCell>
                <mxCell id="bKWbJ0-E0UQl8z5ehJEL-194" value="" style="shape=tableRow;horizontal=0;startSize=0;swimlaneHead=0;swimlaneBody=0;fillColor=none;collapsible=0;dropTarget=0;points=[[0,0.5],[1,0.5]];portConstraint=eastwest;top=0;left=0;right=0;bottom=0;fontColor=light-dark(#FFFFFF,#FFFFFF);" parent="bKWbJ0-E0UQl8z5ehJEL-184" vertex="1">
                    <mxGeometry y="150" width="180" height="30" as="geometry"/>
                </mxCell>
                <mxCell id="bKWbJ0-E0UQl8z5ehJEL-195" value="" style="shape=partialRectangle;connectable=0;fillColor=none;top=0;left=0;bottom=0;right=0;editable=1;overflow=hidden;whiteSpace=wrap;html=1;fontColor=light-dark(#FFFFFF,#FFFFFF);" parent="bKWbJ0-E0UQl8z5ehJEL-194" vertex="1">
                    <mxGeometry width="30" height="30" as="geometry">
                        <mxRectangle width="30" height="30" as="alternateBounds"/>
                    </mxGeometry>
                </mxCell>
                <mxCell id="bKWbJ0-E0UQl8z5ehJEL-196" value="created_at : datetime" style="shape=partialRectangle;connectable=0;fillColor=none;top=0;left=0;bottom=0;right=0;align=left;spacingLeft=6;overflow=hidden;whiteSpace=wrap;html=1;fontColor=light-dark(#FFFFFF,#FFFFFF);" parent="bKWbJ0-E0UQl8z5ehJEL-194" vertex="1">
                    <mxGeometry x="30" width="150" height="30" as="geometry">
                        <mxRectangle width="150" height="30" as="alternateBounds"/>
                    </mxGeometry>
                </mxCell>
                <mxCell id="bKWbJ0-E0UQl8z5ehJEL-203" value="" style="edgeStyle=orthogonalEdgeStyle;fontSize=12;html=1;endArrow=ERoneToMany;rounded=0;entryX=1;entryY=0.5;entryDx=0;entryDy=0;fontColor=light-dark(#FFFFFF,#FFFFFF);" parent="1" target="bKWbJ0-E0UQl8z5ehJEL-181" edge="1">
                    <mxGeometry width="100" height="100" relative="1" as="geometry">
                        <mxPoint x="40" y="80" as="sourcePoint"/>
                        <mxPoint x="-330" y="-40" as="targetPoint"/>
                        <Array as="points">
                            <mxPoint x="-320" y="80"/>
                            <mxPoint x="-320" y="-15"/>
                        </Array>
                    </mxGeometry>
                </mxCell>
                <mxCell id="bKWbJ0-E0UQl8z5ehJEL-207" value="" style="fontSize=12;html=1;endArrow=ERoneToMany;rounded=0;entryX=1;entryY=0.5;entryDx=0;entryDy=0;fontColor=light-dark(#FFFFFF,#FFFFFF);" parent="1" target="wx6jZ7UeDeFFOWRXVseS-318" edge="1">
                    <mxGeometry width="100" height="100" relative="1" as="geometry">
                        <mxPoint x="-320" y="15" as="sourcePoint"/>
                        <mxPoint x="-245" y="100" as="targetPoint"/>
                    </mxGeometry>
                </mxCell>
                <mxCell id="bKWbJ0-E0UQl8z5ehJEL-208" value="" style="edgeStyle=orthogonalEdgeStyle;fontSize=12;html=1;endArrow=ERoneToMany;rounded=0;entryX=1;entryY=0.5;entryDx=0;entryDy=0;fontColor=light-dark(#FFFFFF,#FFFFFF);" parent="1" target="bKWbJ0-E0UQl8z5ehJEL-185" edge="1">
                    <mxGeometry width="100" height="100" relative="1" as="geometry">
                        <mxPoint x="-320" y="60" as="sourcePoint"/>
                        <mxPoint x="-155" y="130" as="targetPoint"/>
                        <Array as="points">
                            <mxPoint x="-320" y="185"/>
                        </Array>
                    </mxGeometry>
                </mxCell>
                <mxCell id="bKWbJ0-E0UQl8z5ehJEL-209" value="" style="edgeStyle=orthogonalEdgeStyle;fontSize=12;html=1;endArrow=ERoneToMany;rounded=0;exitX=0;exitY=0.5;exitDx=0;exitDy=0;entryX=0;entryY=0.5;entryDx=0;entryDy=0;fontColor=light-dark(#FFFFFF,#FFFFFF);" parent="1" source="bKWbJ0-E0UQl8z5ehJEL-197" target="bKWbJ0-E0UQl8z5ehJEL-178" edge="1">
                    <mxGeometry width="100" height="100" relative="1" as="geometry">
                        <mxPoint x="-690" y="150" as="sourcePoint"/>
                        <mxPoint x="-590" y="50" as="targetPoint"/>
                        <Array as="points">
                            <mxPoint x="-550" y="125"/>
                            <mxPoint x="-550" y="-45"/>
                        </Array>
                    </mxGeometry>
                </mxCell>
                <mxCell id="bKWbJ0-E0UQl8z5ehJEL-211" value="&lt;font style=&quot;font-size: 17px;&quot;&gt;&lt;b style=&quot;&quot;&gt;CHAT DB&lt;/b&gt;&lt;/font&gt;" style="text;html=1;align=center;verticalAlign=middle;resizable=0;points=[];autosize=1;strokeColor=none;fillColor=none;fontColor=light-dark(#FFFFFF,#FFFFFF);" parent="1" vertex="1">
                    <mxGeometry x="-575" y="-130" width="100" height="30" as="geometry"/>
                </mxCell>
                <mxCell id="bKWbJ0-E0UQl8z5ehJEL-246" value="relation_status&lt;br&gt;&lt;font style=&quot;font-size: 8px;&quot;&gt;&amp;lt;&amp;lt;ENUM&amp;gt;&amp;gt;&lt;/font&gt;" style="shape=table;startSize=30;container=1;collapsible=1;childLayout=tableLayout;fixedRows=1;rowLines=0;fontStyle=1;align=center;resizeLast=1;html=1;fontColor=light-dark(#FFFFFF,#FFFFFF);" parent="1" vertex="1">
                    <mxGeometry x="-721" y="640" width="179" height="150" as="geometry"/>
                </mxCell>
                <mxCell id="bKWbJ0-E0UQl8z5ehJEL-250" value="" style="shape=tableRow;horizontal=0;startSize=0;swimlaneHead=0;swimlaneBody=0;fillColor=none;collapsible=0;dropTarget=0;points=[[0,0.5],[1,0.5]];portConstraint=eastwest;top=0;left=0;right=0;bottom=0;fontColor=light-dark(#FFFFFF,#FFFFFF);" parent="bKWbJ0-E0UQl8z5ehJEL-246" vertex="1">
                    <mxGeometry y="30" width="179" height="30" as="geometry"/>
                </mxCell>
                <mxCell id="bKWbJ0-E0UQl8z5ehJEL-251" value="" style="shape=partialRectangle;connectable=0;fillColor=none;top=0;left=0;bottom=0;right=0;editable=1;overflow=hidden;whiteSpace=wrap;html=1;fontColor=light-dark(#FFFFFF,#FFFFFF);" parent="bKWbJ0-E0UQl8z5ehJEL-250" vertex="1">
                    <mxGeometry width="30" height="30" as="geometry">
                        <mxRectangle width="30" height="30" as="alternateBounds"/>
                    </mxGeometry>
                </mxCell>
                <mxCell id="bKWbJ0-E0UQl8z5ehJEL-252" value="REQUESTED" style="shape=partialRectangle;connectable=0;fillColor=none;top=0;left=0;bottom=0;right=0;align=left;spacingLeft=6;overflow=hidden;whiteSpace=wrap;html=1;fontColor=light-dark(#FFFFFF,#FFFFFF);" parent="bKWbJ0-E0UQl8z5ehJEL-250" vertex="1">
                    <mxGeometry x="30" width="149" height="30" as="geometry">
                        <mxRectangle width="149" height="30" as="alternateBounds"/>
                    </mxGeometry>
                </mxCell>
                <mxCell id="bKWbJ0-E0UQl8z5ehJEL-253" value="" style="shape=tableRow;horizontal=0;startSize=0;swimlaneHead=0;swimlaneBody=0;fillColor=none;collapsible=0;dropTarget=0;points=[[0,0.5],[1,0.5]];portConstraint=eastwest;top=0;left=0;right=0;bottom=0;fontColor=light-dark(#FFFFFF,#FFFFFF);" parent="bKWbJ0-E0UQl8z5ehJEL-246" vertex="1">
                    <mxGeometry y="60" width="179" height="30" as="geometry"/>
                </mxCell>
                <mxCell id="bKWbJ0-E0UQl8z5ehJEL-254" value="" style="shape=partialRectangle;connectable=0;fillColor=none;top=0;left=0;bottom=0;right=0;editable=1;overflow=hidden;whiteSpace=wrap;html=1;fontColor=light-dark(#FFFFFF,#FFFFFF);" parent="bKWbJ0-E0UQl8z5ehJEL-253" vertex="1">
                    <mxGeometry width="30" height="30" as="geometry">
                        <mxRectangle width="30" height="30" as="alternateBounds"/>
                    </mxGeometry>
                </mxCell>
                <mxCell id="bKWbJ0-E0UQl8z5ehJEL-255" value="ACCEPTED" style="shape=partialRectangle;connectable=0;fillColor=none;top=0;left=0;bottom=0;right=0;align=left;spacingLeft=6;overflow=hidden;whiteSpace=wrap;html=1;fontColor=light-dark(#FFFFFF,#FFFFFF);" parent="bKWbJ0-E0UQl8z5ehJEL-253" vertex="1">
                    <mxGeometry x="30" width="149" height="30" as="geometry">
                        <mxRectangle width="149" height="30" as="alternateBounds"/>
                    </mxGeometry>
                </mxCell>
                <mxCell id="bKWbJ0-E0UQl8z5ehJEL-256" value="" style="shape=tableRow;horizontal=0;startSize=0;swimlaneHead=0;swimlaneBody=0;fillColor=none;collapsible=0;dropTarget=0;points=[[0,0.5],[1,0.5]];portConstraint=eastwest;top=0;left=0;right=0;bottom=0;fontColor=light-dark(#FFFFFF,#FFFFFF);" parent="bKWbJ0-E0UQl8z5ehJEL-246" vertex="1">
                    <mxGeometry y="90" width="179" height="30" as="geometry"/>
                </mxCell>
                <mxCell id="bKWbJ0-E0UQl8z5ehJEL-257" value="" style="shape=partialRectangle;connectable=0;fillColor=none;top=0;left=0;bottom=0;right=0;editable=1;overflow=hidden;whiteSpace=wrap;html=1;fontColor=light-dark(#FFFFFF,#FFFFFF);" parent="bKWbJ0-E0UQl8z5ehJEL-256" vertex="1">
                    <mxGeometry width="30" height="30" as="geometry">
                        <mxRectangle width="30" height="30" as="alternateBounds"/>
                    </mxGeometry>
                </mxCell>
                <mxCell id="bKWbJ0-E0UQl8z5ehJEL-258" value="DECLINED" style="shape=partialRectangle;connectable=0;fillColor=none;top=0;left=0;bottom=0;right=0;align=left;spacingLeft=6;overflow=hidden;whiteSpace=wrap;html=1;fontColor=light-dark(#FFFFFF,#FFFFFF);" parent="bKWbJ0-E0UQl8z5ehJEL-256" vertex="1">
                    <mxGeometry x="30" width="149" height="30" as="geometry">
                        <mxRectangle width="149" height="30" as="alternateBounds"/>
                    </mxGeometry>
                </mxCell>
                <mxCell id="bKWbJ0-E0UQl8z5ehJEL-259" value="BLOCKED" style="shape=partialRectangle;fillColor=none;align=left;verticalAlign=middle;strokeColor=none;spacingLeft=34;rotatable=0;points=[[0,0.5],[1,0.5]];portConstraint=eastwest;dropTarget=0;fontColor=light-dark(#FFFFFF,#FFFFFF);" parent="1" vertex="1">
                    <mxGeometry x="-721" y="760" width="90" height="30" as="geometry"/>
                </mxCell>
                <mxCell id="bKWbJ0-E0UQl8z5ehJEL-260" value="" style="shape=partialRectangle;top=0;left=0;bottom=0;fillColor=none;stokeWidth=1;align=left;verticalAlign=middle;spacingLeft=4;spacingRight=4;overflow=hidden;rotatable=0;points=[];portConstraint=eastwest;part=1;fontColor=light-dark(#FFFFFF,#FFFFFF);" parent="bKWbJ0-E0UQl8z5ehJEL-259" vertex="1" connectable="0">
                    <mxGeometry width="30" height="30" as="geometry"/>
                </mxCell>
                <mxCell id="bKWbJ0-E0UQl8z5ehJEL-261" value="" style="edgeStyle=orthogonalEdgeStyle;fontSize=12;html=1;endArrow=ERoneToMany;rounded=0;exitX=1;exitY=0.133;exitDx=0;exitDy=0;exitPerimeter=0;fontColor=light-dark(#FFFFFF,#FFFFFF);" parent="1" source="bKWbJ0-E0UQl8z5ehJEL-246" edge="1">
                    <mxGeometry width="100" height="100" relative="1" as="geometry">
                        <mxPoint x="-536.642" y="659.96" as="sourcePoint"/>
                        <mxPoint x="-542" y="522.71" as="targetPoint"/>
                        <Array as="points">
                            <mxPoint x="-522" y="660"/>
                            <mxPoint x="-522" y="523"/>
                        </Array>
                    </mxGeometry>
                </mxCell>
                <mxCell id="bKWbJ0-E0UQl8z5ehJEL-262" value="&lt;font style=&quot;font-size: 20px;&quot;&gt;UUID: Universally unique identifier (550e8400-e29b-41d4-a716-446655440000)&lt;/font&gt;" style="text;html=1;align=center;verticalAlign=middle;resizable=0;points=[];autosize=1;strokeColor=none;fillColor=none;fontColor=light-dark(#FFFFFF,#FFFFFF);" parent="1" vertex="1">
                    <mxGeometry x="-778" y="-940" width="730" height="40" as="geometry"/>
                </mxCell>
                <mxCell id="4" value="&lt;font style=&quot;scrollbar-color: rgb(75, 75, 75) rgb(27, 29, 30);&quot;&gt;Unique, used as primary key&lt;/font&gt;&lt;div style=&quot;scrollbar-color: rgb(75, 75, 75) rgb(27, 29, 30);&quot;&gt;&lt;font style=&quot;scrollbar-color: rgb(75, 75, 75) rgb(27, 29, 30);&quot;&gt;it allows the user to login just from&lt;/font&gt;&lt;/div&gt;&lt;div style=&quot;scrollbar-color: rgb(75, 75, 75) rgb(27, 29, 30);&quot;&gt;&lt;font style=&quot;scrollbar-color: rgb(75, 75, 75) rgb(27, 29, 30);&quot;&gt;one device at time because the refresh&lt;/font&gt;&lt;/div&gt;&lt;div style=&quot;scrollbar-color: rgb(75, 75, 75) rgb(27, 29, 30);&quot;&gt;&lt;font style=&quot;scrollbar-color: rgb(75, 75, 75) rgb(27, 29, 30);&quot;&gt;token is overriden when a new login&lt;/font&gt;&lt;/div&gt;&lt;div style=&quot;scrollbar-color: rgb(75, 75, 75) rgb(27, 29, 30);&quot;&gt;&lt;font style=&quot;scrollbar-color: rgb(75, 75, 75) rgb(27, 29, 30);&quot;&gt;is done&lt;/font&gt;&lt;/div&gt;" style="text;html=1;align=left;verticalAlign=middle;resizable=0;points=[];autosize=1;strokeColor=none;fillColor=none;fontColor=light-dark(#FFFFFF,#FFFFFF);" parent="1" vertex="1">
                    <mxGeometry x="580" y="10" width="230" height="90" as="geometry"/>
                </mxCell>
                <mxCell id="5" value="" style="endArrow=classic;html=1;edgeStyle=orthogonalEdgeStyle;curved=1;fontColor=light-dark(#FFFFFF,#FFFFFF);" parent="1" edge="1">
                    <mxGeometry width="50" height="50" relative="1" as="geometry">
                        <mxPoint x="594" y="96" as="sourcePoint"/>
                        <mxPoint x="517" y="106" as="targetPoint"/>
                        <Array as="points">
                            <mxPoint x="594" y="106"/>
                        </Array>
                    </mxGeometry>
                </mxCell>
                <mxCell id="6" value="twofactor_tokens&amp;nbsp;" style="shape=table;startSize=30;container=1;collapsible=1;childLayout=tableLayout;fixedRows=1;rowLines=0;fontStyle=1;align=center;resizeLast=1;html=1;whiteSpace=wrap;fontColor=light-dark(#FFFFFF,#FFFFFF);" vertex="1" parent="1">
                    <mxGeometry x="240" y="220" width="200" height="180" as="geometry"/>
                </mxCell>
                <mxCell id="7" value="" style="shape=tableRow;horizontal=0;startSize=0;swimlaneHead=0;swimlaneBody=0;fillColor=none;collapsible=0;dropTarget=0;points=[[0,0.5],[1,0.5]];portConstraint=eastwest;top=0;left=0;right=0;bottom=0;html=1;fontColor=light-dark(#FFFFFF,#FFFFFF);" vertex="1" parent="6">
                    <mxGeometry y="30" width="200" height="30" as="geometry"/>
                </mxCell>
                <mxCell id="8" value="PK" style="shape=partialRectangle;connectable=0;fillColor=none;top=0;left=0;bottom=0;right=0;fontStyle=1;overflow=hidden;html=1;whiteSpace=wrap;fontColor=light-dark(#FFFFFF,#FFFFFF);" vertex="1" parent="7">
                    <mxGeometry width="60" height="30" as="geometry">
                        <mxRectangle width="60" height="30" as="alternateBounds"/>
                    </mxGeometry>
                </mxCell>
                <mxCell id="9" value="token_id : UUID" style="shape=partialRectangle;connectable=0;fillColor=none;top=0;left=0;bottom=0;right=0;align=left;spacingLeft=6;fontStyle=5;overflow=hidden;html=1;whiteSpace=wrap;fontColor=light-dark(#FFFFFF,#FFFFFF);" vertex="1" parent="7">
                    <mxGeometry x="60" width="140" height="30" as="geometry">
                        <mxRectangle width="140" height="30" as="alternateBounds"/>
                    </mxGeometry>
                </mxCell>
                <mxCell id="10" value="" style="shape=tableRow;horizontal=0;startSize=0;swimlaneHead=0;swimlaneBody=0;fillColor=none;collapsible=0;dropTarget=0;points=[[0,0.5],[1,0.5]];portConstraint=eastwest;top=0;left=0;right=0;bottom=1;html=1;fontColor=light-dark(#FFFFFF,#FFFFFF);" vertex="1" parent="6">
                    <mxGeometry y="60" width="200" height="30" as="geometry"/>
                </mxCell>
                <mxCell id="11" value="FK" style="shape=partialRectangle;connectable=0;fillColor=none;top=0;left=0;bottom=0;right=0;fontStyle=1;overflow=hidden;html=1;whiteSpace=wrap;fontColor=light-dark(#FFFFFF,#FFFFFF);" vertex="1" parent="10">
                    <mxGeometry width="60" height="30" as="geometry">
                        <mxRectangle width="60" height="30" as="alternateBounds"/>
                    </mxGeometry>
                </mxCell>
                <mxCell id="12" value="userd_id : UUID" style="shape=partialRectangle;connectable=0;fillColor=none;top=0;left=0;bottom=0;right=0;align=left;spacingLeft=6;fontStyle=5;overflow=hidden;html=1;whiteSpace=wrap;fontColor=light-dark(#FFFFFF,#FFFFFF);" vertex="1" parent="10">
                    <mxGeometry x="60" width="140" height="30" as="geometry">
                        <mxRectangle width="140" height="30" as="alternateBounds"/>
                    </mxGeometry>
                </mxCell>
                <mxCell id="13" value="" style="shape=tableRow;horizontal=0;startSize=0;swimlaneHead=0;swimlaneBody=0;fillColor=none;collapsible=0;dropTarget=0;points=[[0,0.5],[1,0.5]];portConstraint=eastwest;top=0;left=0;right=0;bottom=0;html=1;fontColor=light-dark(#FFFFFF,#FFFFFF);" vertex="1" parent="6">
                    <mxGeometry y="90" width="200" height="30" as="geometry"/>
                </mxCell>
                <mxCell id="14" value="" style="shape=partialRectangle;connectable=0;fillColor=none;top=0;left=0;bottom=0;right=0;editable=1;overflow=hidden;html=1;whiteSpace=wrap;fontColor=light-dark(#FFFFFF,#FFFFFF);" vertex="1" parent="13">
                    <mxGeometry width="60" height="30" as="geometry">
                        <mxRectangle width="60" height="30" as="alternateBounds"/>
                    </mxGeometry>
                </mxCell>
                <mxCell id="15" value="otp_code (hash): string" style="shape=partialRectangle;connectable=0;fillColor=none;top=0;left=0;bottom=0;right=0;align=left;spacingLeft=6;overflow=hidden;html=1;whiteSpace=wrap;fontColor=light-dark(#FFFFFF,#FFFFFF);" vertex="1" parent="13">
                    <mxGeometry x="60" width="140" height="30" as="geometry">
                        <mxRectangle width="140" height="30" as="alternateBounds"/>
                    </mxGeometry>
                </mxCell>
                <mxCell id="16" value="" style="shape=tableRow;horizontal=0;startSize=0;swimlaneHead=0;swimlaneBody=0;fillColor=none;collapsible=0;dropTarget=0;points=[[0,0.5],[1,0.5]];portConstraint=eastwest;top=0;left=0;right=0;bottom=0;html=1;fontColor=light-dark(#FFFFFF,#FFFFFF);" vertex="1" parent="6">
                    <mxGeometry y="120" width="200" height="30" as="geometry"/>
                </mxCell>
                <mxCell id="17" value="" style="shape=partialRectangle;connectable=0;fillColor=none;top=0;left=0;bottom=0;right=0;editable=1;overflow=hidden;html=1;whiteSpace=wrap;fontColor=light-dark(#FFFFFF,#FFFFFF);" vertex="1" parent="16">
                    <mxGeometry width="60" height="30" as="geometry">
                        <mxRectangle width="60" height="30" as="alternateBounds"/>
                    </mxGeometry>
                </mxCell>
                <mxCell id="18" value="expires_at : datetime" style="shape=partialRectangle;connectable=0;fillColor=none;top=0;left=0;bottom=0;right=0;align=left;spacingLeft=6;overflow=hidden;html=1;whiteSpace=wrap;fontColor=light-dark(#FFFFFF,#FFFFFF);" vertex="1" parent="16">
                    <mxGeometry x="60" width="140" height="30" as="geometry">
                        <mxRectangle width="140" height="30" as="alternateBounds"/>
                    </mxGeometry>
                </mxCell>
                <mxCell id="19" value="" style="shape=tableRow;horizontal=0;startSize=0;swimlaneHead=0;swimlaneBody=0;fillColor=none;collapsible=0;dropTarget=0;points=[[0,0.5],[1,0.5]];portConstraint=eastwest;top=0;left=0;right=0;bottom=0;html=1;fontColor=light-dark(#FFFFFF,#FFFFFF);" vertex="1" parent="1">
                    <mxGeometry x="250" y="350" width="230" height="30" as="geometry"/>
                </mxCell>
                <mxCell id="20" value="" style="shape=partialRectangle;connectable=0;fillColor=none;top=0;left=0;bottom=0;right=0;editable=1;overflow=hidden;html=1;whiteSpace=wrap;fontColor=light-dark(#FFFFFF,#FFFFFF);" vertex="1" parent="19">
                    <mxGeometry width="60" height="30" as="geometry">
                        <mxRectangle width="60" height="30" as="alternateBounds"/>
                    </mxGeometry>
                </mxCell>
                <mxCell id="22" value="created_at : datetime" style="shape=partialRectangle;fillColor=none;align=left;verticalAlign=middle;strokeColor=none;spacingLeft=34;rotatable=0;points=[[0,0.5],[1,0.5]];portConstraint=eastwest;dropTarget=0;fontColor=light-dark(#FFFFFF,#FFFFFF);" vertex="1" parent="1">
                    <mxGeometry x="270" y="370" width="90" height="30" as="geometry"/>
                </mxCell>
                <mxCell id="23" value="" style="shape=partialRectangle;top=0;left=0;bottom=0;fillColor=none;stokeWidth=1;align=left;verticalAlign=middle;spacingLeft=4;spacingRight=4;overflow=hidden;rotatable=0;points=[];portConstraint=eastwest;part=1;fontColor=light-dark(#FFFFFF,#FFFFFF);" vertex="1" connectable="0" parent="22">
                    <mxGeometry width="30" height="30" as="geometry"/>
                </mxCell>
                <mxCell id="24" value="" style="edgeStyle=orthogonalEdgeStyle;fontSize=12;html=1;endArrow=ERzeroToOne;startArrow=ERmandOne;entryX=0;entryY=0.5;entryDx=0;entryDy=0;fontColor=light-dark(#FFFFFF,#FFFFFF);" edge="1" parent="1" target="10">
                    <mxGeometry width="100" height="100" relative="1" as="geometry">
                        <mxPoint x="40" y="90" as="sourcePoint"/>
                        <mxPoint x="10" y="210" as="targetPoint"/>
                        <Array as="points">
                            <mxPoint y="90"/>
                            <mxPoint y="305"/>
                        </Array>
                    </mxGeometry>
                </mxCell>
                <mxCell id="25" value="tfa_active : boolean" style="shape=partialRectangle;fillColor=none;align=left;verticalAlign=middle;strokeColor=none;spacingLeft=34;rotatable=0;points=[[0,0.5],[1,0.5]];portConstraint=eastwest;dropTarget=0;fontColor=light-dark(#FFFFFF,#FFFFFF);" vertex="1" parent="1">
                    <mxGeometry x="40" y="190" width="90" height="30" as="geometry"/>
                </mxCell>
                <mxCell id="26" value="" style="shape=partialRectangle;top=0;left=0;bottom=0;fillColor=none;stokeWidth=1;align=left;verticalAlign=middle;spacingLeft=4;spacingRight=4;overflow=hidden;rotatable=0;points=[];portConstraint=eastwest;part=1;fontColor=light-dark(#FFFFFF,#FFFFFF);" vertex="1" connectable="0" parent="25">
                    <mxGeometry width="30" height="30" as="geometry"/>
                </mxCell>
            </root>
        </mxGraphModel>
    </diagram>
</mxfile>